<svg width="49" height="49" viewBox="0 0 49 49" fill="none" xmlns="http://www.w3.org/2000/svg">
<path d="M31.5788 5.13455C31.3016 5.36226 31.206 5.70383 31.206 6.49049C31.206 7.16328 31.1773 7.28749 31.0148 7.38064C30.5751 7.62906 30.8619 7.69116 32.5251 7.69116L34.217 7.68081L33.9589 7.4324C33.7104 7.20468 33.7008 7.15293 33.7199 6.31452C33.7486 5.09315 33.6626 4.99999 32.5538 4.99999C32.0567 5.01034 31.6744 5.05174 31.5788 5.13455ZM32.353 5.62103C32.353 5.73489 32.267 5.8798 32.1619 5.95225C32.0185 6.05576 31.9707 6.20067 31.9707 6.52154C31.9707 6.89416 31.942 6.96662 31.7795 6.96662C31.5501 6.96662 31.445 6.59399 31.5405 6.05576C31.6266 5.55893 31.7413 5.41402 32.0758 5.41402C32.2861 5.41402 32.353 5.46577 32.353 5.62103Z" fill="white" style="mix-blend-mode:overlay"/>
<path d="M31.5788 5.13455C31.3016 5.36226 31.206 5.70383 31.206 6.49049C31.206 7.16328 31.1773 7.28749 31.0148 7.38064C30.5751 7.62906 30.8619 7.69116 32.5251 7.69116L34.217 7.68081L33.9589 7.4324C33.7104 7.20468 33.7008 7.15293 33.7199 6.31452C33.7486 5.09315 33.6626 4.99999 32.5538 4.99999C32.0567 5.01034 31.6744 5.05174 31.5788 5.13455ZM32.353 5.62103C32.353 5.73489 32.267 5.8798 32.1619 5.95225C32.0185 6.05576 31.9707 6.20067 31.9707 6.52154C31.9707 6.89416 31.942 6.96662 31.7795 6.96662C31.5501 6.96662 31.445 6.59399 31.5405 6.05576C31.6266 5.55893 31.7413 5.41402 32.0758 5.41402C32.2861 5.41402 32.353 5.46577 32.353 5.62103Z" fill="white" fill-opacity="0.8" style="mix-blend-mode:overlay"/>
<path d="M21.4082 8.37434C21.284 8.5089 21.2648 8.73661 21.284 9.53362C21.3126 10.5169 21.3222 10.5376 21.5803 10.6722C21.7332 10.755 21.9626 10.786 22.1251 10.7446C22.3737 10.6825 22.4023 10.6308 22.431 10.1961C22.4597 9.75098 22.4788 9.70958 22.6986 9.70958C22.9185 9.70958 22.9376 9.75098 22.9663 10.1857C23.0045 10.755 23.0714 10.7964 24.0082 10.7964H24.6008L24.6295 10.2478C24.6582 9.79238 24.6869 9.70958 24.8589 9.67852C25.0788 9.64747 25.1839 9.87519 25.1839 10.3927C25.1839 10.8067 25.7097 10.9413 26.1207 10.6308C26.3119 10.4859 26.331 10.3927 26.331 9.50256C26.331 8.75732 26.2927 8.49855 26.178 8.37434C25.9486 8.12593 21.6376 8.12593 21.4082 8.37434Z" fill="white" style="mix-blend-mode:overlay"/>
<path d="M21.4082 8.37434C21.284 8.5089 21.2648 8.73661 21.284 9.53362C21.3126 10.5169 21.3222 10.5376 21.5803 10.6722C21.7332 10.755 21.9626 10.786 22.1251 10.7446C22.3737 10.6825 22.4023 10.6308 22.431 10.1961C22.4597 9.75098 22.4788 9.70958 22.6986 9.70958C22.9185 9.70958 22.9376 9.75098 22.9663 10.1857C23.0045 10.755 23.0714 10.7964 24.0082 10.7964H24.6008L24.6295 10.2478C24.6582 9.79238 24.6869 9.70958 24.8589 9.67852C25.0788 9.64747 25.1839 9.87519 25.1839 10.3927C25.1839 10.8067 25.7097 10.9413 26.1207 10.6308C26.3119 10.4859 26.331 10.3927 26.331 9.50256C26.331 8.75732 26.2927 8.49855 26.178 8.37434C25.9486 8.12593 21.6376 8.12593 21.4082 8.37434Z" fill="white" fill-opacity="0.8" style="mix-blend-mode:overlay"/>
<path d="M29.3133 8.4157C29.2464 8.52956 29.1986 8.95393 29.1986 9.39901C29.1986 10.1443 29.2082 10.1857 29.4471 10.2788C29.581 10.3409 30.9383 10.3823 32.6015 10.3823C35.4022 10.3823 35.5169 10.372 35.7081 10.165C35.8802 9.97865 35.8897 9.87514 35.8324 9.2127C35.8037 8.79867 35.7272 8.40535 35.6699 8.33289C35.6221 8.26044 35.364 8.20869 35.0677 8.20869H34.5611L34.5324 8.95393C34.5037 9.62673 34.4846 9.70953 34.3125 9.70953C34.1405 9.70953 34.1214 9.62673 34.0927 8.95393L34.064 8.20869H31.7508C29.5427 8.20869 29.428 8.21904 29.3133 8.4157Z" fill="white" style="mix-blend-mode:overlay"/>
<path d="M29.3133 8.4157C29.2464 8.52956 29.1986 8.95393 29.1986 9.39901C29.1986 10.1443 29.2082 10.1857 29.4471 10.2788C29.581 10.3409 30.9383 10.3823 32.6015 10.3823C35.4022 10.3823 35.5169 10.372 35.7081 10.165C35.8802 9.97865 35.8897 9.87514 35.8324 9.2127C35.8037 8.79867 35.7272 8.40535 35.6699 8.33289C35.6221 8.26044 35.364 8.20869 35.0677 8.20869H34.5611L34.5324 8.95393C34.5037 9.62673 34.4846 9.70953 34.3125 9.70953C34.1405 9.70953 34.1214 9.62673 34.0927 8.95393L34.064 8.20869H31.7508C29.5427 8.20869 29.428 8.21904 29.3133 8.4157Z" fill="white" fill-opacity="0.8" style="mix-blend-mode:overlay"/>
<path d="M29.1221 11.0241C28.9405 11.2208 28.9788 11.9039 29.1699 11.9764C29.4758 12.1109 35.8037 12.0488 35.9471 11.9246C36.1478 11.7383 36.1191 11.138 35.8993 11.0034C35.6221 10.8481 29.2751 10.8585 29.1221 11.0241Z" fill="white" style="mix-blend-mode:overlay"/>
<path d="M29.1221 11.0241C28.9405 11.2208 28.9788 11.9039 29.1699 11.9764C29.4758 12.1109 35.8037 12.0488 35.9471 11.9246C36.1478 11.7383 36.1191 11.138 35.8993 11.0034C35.6221 10.8481 29.2751 10.8585 29.1221 11.0241Z" fill="white" fill-opacity="0.8" style="mix-blend-mode:overlay"/>
<path d="M21.3604 11.5726C21.3604 11.6554 21.1788 11.8211 20.9685 11.9453C20.5575 12.1626 19.6398 13.0321 19.6398 13.1873C19.6398 13.2391 20.3854 13.2805 21.303 13.2805C22.3258 13.2805 22.9949 13.3219 23.0332 13.384C23.0618 13.4461 23.0618 13.5807 23.0332 13.6945C22.9758 13.8912 22.8707 13.9015 21.045 13.9222L19.1141 13.9533L18.7795 14.6778L18.445 15.392L18.4163 17.6485C18.3876 19.7704 18.3972 19.9049 18.5597 19.9049C18.6553 19.9049 18.8942 19.936 19.095 19.967L19.4486 20.0395V17.8244C19.4486 15.3299 19.506 15.1022 20.1655 14.7606C20.481 14.595 20.5097 14.595 20.6626 14.7606C20.8155 14.9263 20.806 14.9573 20.5001 15.2989L20.1655 15.6715L20.1178 17.6588C20.0891 18.756 20.0795 19.7393 20.0986 19.8635C20.1273 20.0602 20.2325 20.0912 21.4847 20.2051C22.2302 20.2775 23.2339 20.3707 23.7023 20.4225C24.1802 20.4742 25.0023 20.5467 25.5376 20.5881L26.5126 20.6605L26.5412 17.8244L26.5699 14.9884L26.828 14.388C26.9714 14.0568 27.239 13.591 27.4302 13.3426L27.7743 12.8872L27.3633 12.5042C27.1339 12.2972 26.7898 12.0384 26.5986 11.9246C26.3979 11.8107 26.2354 11.6554 26.2354 11.5726C26.2354 11.4381 25.8817 11.4174 23.7979 11.4174C21.7141 11.4174 21.3604 11.4381 21.3604 11.5726ZM20.8825 12.5042C21.0258 12.6905 20.9302 12.8665 20.6817 12.8665C20.4523 12.8665 20.328 12.5663 20.5097 12.4421C20.6913 12.3179 20.7486 12.3282 20.8825 12.5042ZM23.4538 12.4938C23.5398 12.6077 23.5302 12.6802 23.4155 12.8044C23.1957 13.0321 21.6376 13.0424 21.4177 12.8147C21.3413 12.7216 21.2935 12.587 21.3222 12.5042C21.3986 12.2868 23.2913 12.2765 23.4538 12.4938ZM21.628 14.7503C21.781 14.9159 21.7714 14.9884 21.5994 15.185C21.4369 15.361 21.217 15.3092 21.131 15.0815C20.9972 14.7192 21.3699 14.4708 21.628 14.7503Z" fill="white" style="mix-blend-mode:overlay"/>
<path d="M21.3604 11.5726C21.3604 11.6554 21.1788 11.8211 20.9685 11.9453C20.5575 12.1626 19.6398 13.0321 19.6398 13.1873C19.6398 13.2391 20.3854 13.2805 21.303 13.2805C22.3258 13.2805 22.9949 13.3219 23.0332 13.384C23.0618 13.4461 23.0618 13.5807 23.0332 13.6945C22.9758 13.8912 22.8707 13.9015 21.045 13.9222L19.1141 13.9533L18.7795 14.6778L18.445 15.392L18.4163 17.6485C18.3876 19.7704 18.3972 19.9049 18.5597 19.9049C18.6553 19.9049 18.8942 19.936 19.095 19.967L19.4486 20.0395V17.8244C19.4486 15.3299 19.506 15.1022 20.1655 14.7606C20.481 14.595 20.5097 14.595 20.6626 14.7606C20.8155 14.9263 20.806 14.9573 20.5001 15.2989L20.1655 15.6715L20.1178 17.6588C20.0891 18.756 20.0795 19.7393 20.0986 19.8635C20.1273 20.0602 20.2325 20.0912 21.4847 20.2051C22.2302 20.2775 23.2339 20.3707 23.7023 20.4225C24.1802 20.4742 25.0023 20.5467 25.5376 20.5881L26.5126 20.6605L26.5412 17.8244L26.5699 14.9884L26.828 14.388C26.9714 14.0568 27.239 13.591 27.4302 13.3426L27.7743 12.8872L27.3633 12.5042C27.1339 12.2972 26.7898 12.0384 26.5986 11.9246C26.3979 11.8107 26.2354 11.6554 26.2354 11.5726C26.2354 11.4381 25.8817 11.4174 23.7979 11.4174C21.7141 11.4174 21.3604 11.4381 21.3604 11.5726ZM20.8825 12.5042C21.0258 12.6905 20.9302 12.8665 20.6817 12.8665C20.4523 12.8665 20.328 12.5663 20.5097 12.4421C20.6913 12.3179 20.7486 12.3282 20.8825 12.5042ZM23.4538 12.4938C23.5398 12.6077 23.5302 12.6802 23.4155 12.8044C23.1957 13.0321 21.6376 13.0424 21.4177 12.8147C21.3413 12.7216 21.2935 12.587 21.3222 12.5042C21.3986 12.2868 23.2913 12.2765 23.4538 12.4938ZM21.628 14.7503C21.781 14.9159 21.7714 14.9884 21.5994 15.185C21.4369 15.361 21.217 15.3092 21.131 15.0815C20.9972 14.7192 21.3699 14.4708 21.628 14.7503Z" fill="white" fill-opacity="0.8" style="mix-blend-mode:overlay"/>
<path d="M28.8067 13.2184C28.3574 13.5807 27.7934 14.4087 27.5736 15.0401C27.478 15.2989 27.4302 16.1891 27.4015 18.0625L27.3633 20.7226L27.6883 20.7744C27.8603 20.8054 28.2809 20.8468 28.625 20.8572L29.2464 20.8883L29.2941 20.2155C29.3324 19.6255 29.3706 19.5427 29.5331 19.5427C29.7052 19.5427 29.7243 19.6255 29.753 20.2362C29.7816 21.0435 29.7339 21.0021 30.9191 21.0953C31.3684 21.1263 32.2096 21.1988 32.7831 21.2505C34.886 21.4575 37.3139 21.6646 37.5147 21.6646H37.7154L37.6867 18.4248C37.6581 15.2471 37.6581 15.185 37.4286 14.6779C37.2948 14.388 36.922 13.8705 36.597 13.5082L36.0044 12.8665H32.6206H29.2464L28.8067 13.2184ZM31.7699 13.4254C31.9515 13.6635 31.7985 13.8498 31.2824 13.9844C30.2213 14.2535 29.8486 14.8745 29.7721 16.4375C29.7339 17.3069 29.6956 17.4725 29.5618 17.5036C29.4566 17.5243 29.3515 17.4415 29.2846 17.2759C29.1986 17.0792 29.0934 17.0068 28.8927 17.0068H28.625V16.1787C28.625 15.2678 28.7971 14.74 29.2846 14.181C29.5331 13.8809 30.0971 13.5186 30.5368 13.3737C30.9383 13.2391 31.6552 13.2702 31.7699 13.4254ZM29.753 18.166C30.0206 18.4558 29.7625 18.9423 29.3993 18.8181C29.2941 18.7871 29.1794 18.6629 29.1508 18.549C29.0361 18.1557 29.4853 17.8762 29.753 18.166Z" fill="white" style="mix-blend-mode:overlay"/>
<path d="M28.8067 13.2184C28.3574 13.5807 27.7934 14.4087 27.5736 15.0401C27.478 15.2989 27.4302 16.1891 27.4015 18.0625L27.3633 20.7226L27.6883 20.7744C27.8603 20.8054 28.2809 20.8468 28.625 20.8572L29.2464 20.8883L29.2941 20.2155C29.3324 19.6255 29.3706 19.5427 29.5331 19.5427C29.7052 19.5427 29.7243 19.6255 29.753 20.2362C29.7816 21.0435 29.7339 21.0021 30.9191 21.0953C31.3684 21.1263 32.2096 21.1988 32.7831 21.2505C34.886 21.4575 37.3139 21.6646 37.5147 21.6646H37.7154L37.6867 18.4248C37.6581 15.2471 37.6581 15.185 37.4286 14.6779C37.2948 14.388 36.922 13.8705 36.597 13.5082L36.0044 12.8665H32.6206H29.2464L28.8067 13.2184ZM31.7699 13.4254C31.9515 13.6635 31.7985 13.8498 31.2824 13.9844C30.2213 14.2535 29.8486 14.8745 29.7721 16.4375C29.7339 17.3069 29.6956 17.4725 29.5618 17.5036C29.4566 17.5243 29.3515 17.4415 29.2846 17.2759C29.1986 17.0792 29.0934 17.0068 28.8927 17.0068H28.625V16.1787C28.625 15.2678 28.7971 14.74 29.2846 14.181C29.5331 13.8809 30.0971 13.5186 30.5368 13.3737C30.9383 13.2391 31.6552 13.2702 31.7699 13.4254ZM29.753 18.166C30.0206 18.4558 29.7625 18.9423 29.3993 18.8181C29.2941 18.7871 29.1794 18.6629 29.1508 18.549C29.0361 18.1557 29.4853 17.8762 29.753 18.166Z" fill="white" fill-opacity="0.8" style="mix-blend-mode:overlay"/>
<path d="M8.33186 17.0068C8.02598 17.2759 7.91127 17.8245 8.07377 18.2592C8.29362 18.8285 8.49436 18.8699 11.0657 18.8699H13.398L14.5546 22.6686C15.5296 25.8773 16.4855 29.1067 17.2406 31.7047L17.4127 32.2636L17.0781 33.1538C16.9061 33.6403 16.6575 34.2613 16.5333 34.5511C16.0171 35.7829 16.0267 35.7104 16.5237 36.7144C16.8296 37.3251 17.059 37.646 17.2119 37.7184C17.3553 37.7702 21.2171 37.8116 26.9141 37.8116C35.2684 37.8116 36.4059 37.7909 36.664 37.6563C37.1802 37.3665 37.2853 36.5799 36.8838 36.0623L36.6353 35.7415H27.4685C17.6038 35.7415 18.12 35.7725 18.3972 35.2446C18.4546 35.1515 18.6458 34.6753 18.8178 34.1889L19.1428 33.309L28.0324 33.2573C36.5971 33.2055 36.9316 33.1952 37.1228 33.0089C37.2471 32.8847 37.5052 32.2015 37.811 31.1458C38.0787 30.2245 38.6809 28.2165 39.1493 26.6846C39.6177 25.1424 40 23.7657 40 23.6208C40 23.1964 39.5699 22.8031 39.1206 22.8031C38.9103 22.8031 38.3463 22.7617 37.8684 22.71C37.3809 22.6479 36.4059 22.5547 35.6986 22.4926C34.9912 22.4305 33.978 22.3373 33.4523 22.2856C32.5251 22.1924 31.3493 22.0786 29.0074 21.8716C28.3766 21.8198 27.3538 21.7163 26.742 21.6646C26.1207 21.6024 23.7884 21.3954 21.5516 21.1884C19.3149 20.9918 17.1737 20.7951 16.7818 20.7537L16.0744 20.6812L15.6156 19.2321C15.3575 18.4351 15.1472 17.7106 15.1472 17.6174C15.1472 17.5243 15.023 17.2966 14.87 17.1206L14.5928 16.7997H11.5818C8.70465 16.7997 8.57083 16.8101 8.33186 17.0068ZM19.1428 23.0205C20.5957 23.1343 20.7009 23.1654 20.7391 23.3621C20.7582 23.4863 20.8251 24.0245 20.8825 24.5627C20.9494 25.101 21.0354 25.7945 21.0832 26.105C21.131 26.4155 21.1693 26.7053 21.1693 26.7571C21.1693 26.7985 20.4428 26.8399 19.5443 26.8399H17.9288L17.3458 24.894C17.0303 23.8175 16.7722 22.9066 16.7722 22.8652C16.7722 22.8135 16.9539 22.8031 17.1833 22.8342C17.4031 22.8652 18.2825 22.948 19.1428 23.0205ZM23.7597 23.507C23.817 23.5691 24.0369 26.0015 24.0369 26.5915C24.0369 26.8295 24.0082 26.8399 23.4251 26.8399H22.8038L22.7082 26.2913C22.6222 25.8152 22.3163 23.5587 22.3163 23.3621C22.3163 23.2689 23.6737 23.4035 23.7597 23.507ZM26.5126 23.6933L27.22 23.7657L27.153 24.6973C27.1244 25.2148 27.0957 25.898 27.0957 26.2395V26.8399H26.3788C25.5376 26.8399 25.6236 26.9951 25.4707 25.1113C25.3369 23.4242 25.3369 23.4966 25.595 23.5587C25.7097 23.5898 26.1207 23.6519 26.5126 23.6933ZM30.1163 24.0866C30.1449 24.1694 30.1067 24.8112 30.0398 25.515L29.9155 26.7881L29.256 26.8192L28.606 26.8502L28.6633 25.7324C28.7016 25.1217 28.7494 24.4592 28.778 24.2729L28.8258 23.9417H29.4471C29.8964 23.9417 30.078 23.9831 30.1163 24.0866ZM32.7736 24.2522H33.0508L32.9839 24.894C32.9456 25.2562 32.8692 25.8359 32.8214 26.1878L32.7162 26.8399H32.0949H31.4832L31.5309 26.3948C31.5596 26.1567 31.6074 25.6185 31.6361 25.1941C31.7221 24.1487 31.7412 24.1177 32.1523 24.1901C32.3434 24.2212 32.6206 24.2522 32.7736 24.2522ZM36.7787 24.6248C37.2375 24.6662 37.6103 24.7283 37.6103 24.7801C37.6103 24.8319 37.4765 25.3183 37.314 25.8566L37.0177 26.8399H35.689C34.1787 26.8399 34.2934 26.933 34.4655 25.8152C34.5228 25.4425 34.5897 24.9768 34.6089 24.7905L34.6567 24.4385L35.2971 24.5006C35.6508 24.5317 36.3103 24.5938 36.7787 24.6248ZM21.4943 29.0342C21.609 29.7174 21.7332 31.0215 21.6854 31.0733C21.6568 31.1044 21.1215 31.1561 20.4906 31.1665C19.2862 31.2079 19.1237 31.1561 19.0377 30.7421C18.9707 30.4419 18.6266 29.2205 18.5406 28.9825C18.4737 28.8169 18.5788 28.8065 19.9649 28.8065C21.4273 28.8065 21.456 28.8065 21.4943 29.0342ZM24.2281 28.9307C24.2281 29.0032 24.2759 29.5104 24.3236 30.0486C24.3906 30.7835 24.381 31.0423 24.295 31.1044C24.142 31.2079 23.3869 31.2079 23.3295 31.1044C23.3009 31.0526 23.2435 30.6386 23.1862 30.1831C23.1288 29.7174 23.0619 29.2205 23.0237 29.0756C22.9663 28.8065 22.9663 28.8065 23.5972 28.8065C24.0369 28.8065 24.2281 28.8479 24.2281 28.9307ZM27.0001 29.2412C27.0001 29.4897 26.9714 29.9968 26.9332 30.3902C26.8854 31.0112 26.8472 31.094 26.656 31.1458C26.5317 31.1872 26.3214 31.1768 26.1972 31.1458C25.9964 31.094 25.9582 31.0112 25.9104 30.5144C25.8817 30.2038 25.8244 29.6863 25.7957 29.3758L25.7479 28.8065H26.3692H27.0001V29.2412ZM29.7243 29.2412C29.6861 29.4793 29.6288 29.9968 29.5905 30.4005L29.5332 31.1354L29.017 31.1147C28.7302 31.094 28.4817 31.0733 28.4626 31.0423C28.4435 31.0215 28.453 30.5144 28.4913 29.9037L28.5582 28.8065H29.1699H29.7913L29.7243 29.2412ZM32.4486 28.879C32.439 29.2723 32.1618 31.0215 32.0949 31.0837C32.0567 31.1354 31.8082 31.1458 31.5596 31.1147L31.1008 31.0526L31.1582 30.266C31.2729 28.7237 31.2251 28.8065 31.8751 28.8065C32.1905 28.8065 32.4486 28.8376 32.4486 28.879ZM36.3677 28.9307C36.3581 29.117 35.8515 30.9077 35.7655 31.0526C35.6794 31.2079 34.1023 31.2389 33.892 31.094C33.7868 31.0215 33.7868 30.8249 33.892 29.9037L34.0162 28.8065H35.1919C36.0714 28.8065 36.3677 28.8376 36.3677 28.9307Z" fill="white" style="mix-blend-mode:overlay"/>
<path d="M8.33186 17.0068C8.02598 17.2759 7.91127 17.8245 8.07377 18.2592C8.29362 18.8285 8.49436 18.8699 11.0657 18.8699H13.398L14.5546 22.6686C15.5296 25.8773 16.4855 29.1067 17.2406 31.7047L17.4127 32.2636L17.0781 33.1538C16.9061 33.6403 16.6575 34.2613 16.5333 34.5511C16.0171 35.7829 16.0267 35.7104 16.5237 36.7144C16.8296 37.3251 17.059 37.646 17.2119 37.7184C17.3553 37.7702 21.2171 37.8116 26.9141 37.8116C35.2684 37.8116 36.4059 37.7909 36.664 37.6563C37.1802 37.3665 37.2853 36.5799 36.8838 36.0623L36.6353 35.7415H27.4685C17.6038 35.7415 18.12 35.7725 18.3972 35.2446C18.4546 35.1515 18.6458 34.6753 18.8178 34.1889L19.1428 33.309L28.0324 33.2573C36.5971 33.2055 36.9316 33.1952 37.1228 33.0089C37.2471 32.8847 37.5052 32.2015 37.811 31.1458C38.0787 30.2245 38.6809 28.2165 39.1493 26.6846C39.6177 25.1424 40 23.7657 40 23.6208C40 23.1964 39.5699 22.8031 39.1206 22.8031C38.9103 22.8031 38.3463 22.7617 37.8684 22.71C37.3809 22.6479 36.4059 22.5547 35.6986 22.4926C34.9912 22.4305 33.978 22.3373 33.4523 22.2856C32.5251 22.1924 31.3493 22.0786 29.0074 21.8716C28.3766 21.8198 27.3538 21.7163 26.742 21.6646C26.1207 21.6024 23.7884 21.3954 21.5516 21.1884C19.3149 20.9918 17.1737 20.7951 16.7818 20.7537L16.0744 20.6812L15.6156 19.2321C15.3575 18.4351 15.1472 17.7106 15.1472 17.6174C15.1472 17.5243 15.023 17.2966 14.87 17.1206L14.5928 16.7997H11.5818C8.70465 16.7997 8.57083 16.8101 8.33186 17.0068ZM19.1428 23.0205C20.5957 23.1343 20.7009 23.1654 20.7391 23.3621C20.7582 23.4863 20.8251 24.0245 20.8825 24.5627C20.9494 25.101 21.0354 25.7945 21.0832 26.105C21.131 26.4155 21.1693 26.7053 21.1693 26.7571C21.1693 26.7985 20.4428 26.8399 19.5443 26.8399H17.9288L17.3458 24.894C17.0303 23.8175 16.7722 22.9066 16.7722 22.8652C16.7722 22.8135 16.9539 22.8031 17.1833 22.8342C17.4031 22.8652 18.2825 22.948 19.1428 23.0205ZM23.7597 23.507C23.817 23.5691 24.0369 26.0015 24.0369 26.5915C24.0369 26.8295 24.0082 26.8399 23.4251 26.8399H22.8038L22.7082 26.2913C22.6222 25.8152 22.3163 23.5587 22.3163 23.3621C22.3163 23.2689 23.6737 23.4035 23.7597 23.507ZM26.5126 23.6933L27.22 23.7657L27.153 24.6973C27.1244 25.2148 27.0957 25.898 27.0957 26.2395V26.8399H26.3788C25.5376 26.8399 25.6236 26.9951 25.4707 25.1113C25.3369 23.4242 25.3369 23.4966 25.595 23.5587C25.7097 23.5898 26.1207 23.6519 26.5126 23.6933ZM30.1163 24.0866C30.1449 24.1694 30.1067 24.8112 30.0398 25.515L29.9155 26.7881L29.256 26.8192L28.606 26.8502L28.6633 25.7324C28.7016 25.1217 28.7494 24.4592 28.778 24.2729L28.8258 23.9417H29.4471C29.8964 23.9417 30.078 23.9831 30.1163 24.0866ZM32.7736 24.2522H33.0508L32.9839 24.894C32.9456 25.2562 32.8692 25.8359 32.8214 26.1878L32.7162 26.8399H32.0949H31.4832L31.5309 26.3948C31.5596 26.1567 31.6074 25.6185 31.6361 25.1941C31.7221 24.1487 31.7412 24.1177 32.1523 24.1901C32.3434 24.2212 32.6206 24.2522 32.7736 24.2522ZM36.7787 24.6248C37.2375 24.6662 37.6103 24.7283 37.6103 24.7801C37.6103 24.8319 37.4765 25.3183 37.314 25.8566L37.0177 26.8399H35.689C34.1787 26.8399 34.2934 26.933 34.4655 25.8152C34.5228 25.4425 34.5897 24.9768 34.6089 24.7905L34.6567 24.4385L35.2971 24.5006C35.6508 24.5317 36.3103 24.5938 36.7787 24.6248ZM21.4943 29.0342C21.609 29.7174 21.7332 31.0215 21.6854 31.0733C21.6568 31.1044 21.1215 31.1561 20.4906 31.1665C19.2862 31.2079 19.1237 31.1561 19.0377 30.7421C18.9707 30.4419 18.6266 29.2205 18.5406 28.9825C18.4737 28.8169 18.5788 28.8065 19.9649 28.8065C21.4273 28.8065 21.456 28.8065 21.4943 29.0342ZM24.2281 28.9307C24.2281 29.0032 24.2759 29.5104 24.3236 30.0486C24.3906 30.7835 24.381 31.0423 24.295 31.1044C24.142 31.2079 23.3869 31.2079 23.3295 31.1044C23.3009 31.0526 23.2435 30.6386 23.1862 30.1831C23.1288 29.7174 23.0619 29.2205 23.0237 29.0756C22.9663 28.8065 22.9663 28.8065 23.5972 28.8065C24.0369 28.8065 24.2281 28.8479 24.2281 28.9307ZM27.0001 29.2412C27.0001 29.4897 26.9714 29.9968 26.9332 30.3902C26.8854 31.0112 26.8472 31.094 26.656 31.1458C26.5317 31.1872 26.3214 31.1768 26.1972 31.1458C25.9964 31.094 25.9582 31.0112 25.9104 30.5144C25.8817 30.2038 25.8244 29.6863 25.7957 29.3758L25.7479 28.8065H26.3692H27.0001V29.2412ZM29.7243 29.2412C29.6861 29.4793 29.6288 29.9968 29.5905 30.4005L29.5332 31.1354L29.017 31.1147C28.7302 31.094 28.4817 31.0733 28.4626 31.0423C28.4435 31.0215 28.453 30.5144 28.4913 29.9037L28.5582 28.8065H29.1699H29.7913L29.7243 29.2412ZM32.4486 28.879C32.439 29.2723 32.1618 31.0215 32.0949 31.0837C32.0567 31.1354 31.8082 31.1458 31.5596 31.1147L31.1008 31.0526L31.1582 30.266C31.2729 28.7237 31.2251 28.8065 31.8751 28.8065C32.1905 28.8065 32.4486 28.8376 32.4486 28.879ZM36.3677 28.9307C36.3581 29.117 35.8515 30.9077 35.7655 31.0526C35.6794 31.2079 34.1023 31.2389 33.892 31.094C33.7868 31.0215 33.7868 30.8249 33.892 29.9037L34.0162 28.8065H35.1919C36.0714 28.8065 36.3677 28.8376 36.3677 28.9307Z" fill="white" fill-opacity="0.8" style="mix-blend-mode:overlay"/>
<path d="M18.1391 39.1572C17.2311 39.3849 16.495 40.4096 16.4855 41.4447C16.4855 42.3659 16.8678 43.1008 17.6134 43.6183C18.3972 44.1566 19.2575 44.1048 20.0891 43.4838C20.9685 42.842 21.2744 41.3308 20.7391 40.3475C20.2038 39.3435 19.1906 38.8777 18.1391 39.1572ZM18.1774 39.7368C18.2538 39.9645 17.5178 40.7615 17.3075 40.6787C17.059 40.5752 17.1259 40.1923 17.4509 39.8714C17.7759 39.5402 18.0818 39.4781 18.1774 39.7368Z" fill="white" style="mix-blend-mode:overlay"/>
<path d="M18.1391 39.1572C17.2311 39.3849 16.495 40.4096 16.4855 41.4447C16.4855 42.3659 16.8678 43.1008 17.6134 43.6183C18.3972 44.1566 19.2575 44.1048 20.0891 43.4838C20.9685 42.842 21.2744 41.3308 20.7391 40.3475C20.2038 39.3435 19.1906 38.8777 18.1391 39.1572ZM18.1774 39.7368C18.2538 39.9645 17.5178 40.7615 17.3075 40.6787C17.059 40.5752 17.1259 40.1923 17.4509 39.8714C17.7759 39.5402 18.0818 39.4781 18.1774 39.7368Z" fill="white" fill-opacity="0.8" style="mix-blend-mode:overlay"/>
<path d="M33.2898 39.2296C31.7604 39.861 31.3207 41.9208 32.439 43.1732C32.8978 43.6804 33.2706 43.8978 33.8059 43.9806C34.9625 44.1566 36.1956 43.1111 36.339 41.8484C36.4155 41.1549 36.3199 40.7201 35.9758 40.1508C35.4022 39.2193 34.2743 38.8363 33.2898 39.2296ZM33.4714 39.83C33.4905 40.0887 32.7927 40.7615 32.592 40.6684C32.3434 40.5752 32.4295 40.2233 32.7927 39.8817C33.1655 39.5298 33.4427 39.5091 33.4714 39.83Z" fill="white" style="mix-blend-mode:overlay"/>
<path d="M33.2898 39.2296C31.7604 39.861 31.3207 41.9208 32.439 43.1732C32.8978 43.6804 33.2706 43.8978 33.8059 43.9806C34.9625 44.1566 36.1956 43.1111 36.339 41.8484C36.4155 41.1549 36.3199 40.7201 35.9758 40.1508C35.4022 39.2193 34.2743 38.8363 33.2898 39.2296ZM33.4714 39.83C33.4905 40.0887 32.7927 40.7615 32.592 40.6684C32.3434 40.5752 32.4295 40.2233 32.7927 39.8817C33.1655 39.5298 33.4427 39.5091 33.4714 39.83Z" fill="white" fill-opacity="0.8" style="mix-blend-mode:overlay"/>
</svg>
