<svg width="221" height="168" viewBox="0 0 221 168" fill="none" xmlns="http://www.w3.org/2000/svg">
<g style="mix-blend-mode:overlay">
<ellipse cx="19.4527" cy="19.0865" rx="19.4527" ry="19.0865" transform="matrix(0.911174 0.412022 -0.432516 0.901626 52.5464 36.7383)" fill="#F3F277"/>
<ellipse cx="19.4527" cy="19.0865" rx="19.4527" ry="19.0865" transform="matrix(0.911174 0.412022 -0.432516 0.901626 70.1699 0)" fill="#F3F277"/>
<ellipse cx="19.4527" cy="19.0865" rx="19.4527" ry="19.0865" transform="matrix(0.911174 0.412022 -0.432516 0.901626 34.9229 73.4761)" fill="#F3F277"/>
<ellipse cx="19.4527" cy="19.0865" rx="19.4527" ry="19.0865" transform="matrix(0.911174 0.412022 -0.432516 0.901626 17.2994 110.214)" fill="#F3F277"/>
</g>
<g style="mix-blend-mode:overlay">
<ellipse cx="19.4527" cy="19.0865" rx="19.4527" ry="19.0865" transform="matrix(0.911174 0.412022 -0.432516 0.901626 111.146 41.4985)" fill="#F3F277"/>
<ellipse cx="19.4527" cy="19.0865" rx="19.4527" ry="19.0865" transform="matrix(0.911174 0.412022 -0.432516 0.901626 93.5223 78.2368)" fill="#F3F277"/>
<ellipse cx="19.4527" cy="19.0865" rx="19.4527" ry="19.0865" transform="matrix(0.911174 0.412022 -0.432516 0.901626 75.8988 114.975)" fill="#F3F277"/>
</g>
<g style="mix-blend-mode:overlay">
<ellipse cx="19.4527" cy="19.0865" rx="19.4527" ry="19.0865" transform="matrix(0.911174 0.412022 -0.432516 0.901626 152.574 82.0537)" fill="#F3F277"/>
<ellipse cx="19.4527" cy="19.0865" rx="19.4527" ry="19.0865" transform="matrix(0.911174 0.412022 -0.432516 0.901626 134.951 118.792)" fill="#F3F277"/>
</g>
<g style="mix-blend-mode:overlay">
<ellipse cx="19.4527" cy="19.0865" rx="19.4527" ry="19.0865" transform="matrix(0.911174 0.412022 -0.432516 0.901626 193.55 123.552)" fill="#F3F277"/>
</g>
</svg>
