<svg width="49" height="49" viewBox="0 0 49 49" fill="none" xmlns="http://www.w3.org/2000/svg">
<path d="M8.4912 5.06239C7.83733 5.16669 7.51633 5.49265 7.40933 6.15759C7.37367 6.39228 7.34989 10.2646 7.37367 14.7628L7.40933 22.9638L7.74222 23.2767C8.06321 23.5766 8.14643 23.5897 9.8584 23.5897H11.6536L11.9984 23.2116L12.3431 22.8334V14.3456V5.85772L12.0102 5.45353C11.6774 5.04935 11.6655 5.04935 10.3815 5.01023C9.65629 4.98416 8.8122 5.01023 8.4912 5.06239Z" fill="white" style="mix-blend-mode:overlay"/>
<path d="M8.4912 5.06239C7.83733 5.16669 7.51633 5.49265 7.40933 6.15759C7.37367 6.39228 7.34989 10.2646 7.37367 14.7628L7.40933 22.9638L7.74222 23.2767C8.06321 23.5766 8.14643 23.5897 9.8584 23.5897H11.6536L11.9984 23.2116L12.3431 22.8334V14.3456V5.85772L12.0102 5.45353C11.6774 5.04935 11.6655 5.04935 10.3815 5.01023C9.65629 4.98416 8.8122 5.01023 8.4912 5.06239Z" fill="white" fill-opacity="0.8" style="mix-blend-mode:overlay"/>
<path d="M37.666 5.08846C36.7863 5.29708 36.8338 4.74947 36.8338 14.3586V22.9508L37.131 23.2637C37.4045 23.5766 37.4639 23.5897 39.2116 23.5897H41.0186L41.3634 23.2116L41.7082 22.8204L41.6844 14.2804L41.6487 5.72733L41.3277 5.38834C41.0305 5.04935 40.9592 5.03631 39.5444 5.01023C38.7479 4.9972 37.8919 5.03631 37.666 5.08846Z" fill="white" style="mix-blend-mode:overlay"/>
<path d="M37.666 5.08846C36.7863 5.29708 36.8338 4.74947 36.8338 14.3586V22.9508L37.131 23.2637C37.4045 23.5766 37.4639 23.5897 39.2116 23.5897H41.0186L41.3634 23.2116L41.7082 22.8204L41.6844 14.2804L41.6487 5.72733L41.3277 5.38834C41.0305 5.04935 40.9592 5.03631 39.5444 5.01023C38.7479 4.9972 37.8919 5.03631 37.666 5.08846Z" fill="white" fill-opacity="0.8" style="mix-blend-mode:overlay"/>
<path d="M2.74899 9.32588C2.59443 9.36499 2.36855 9.54753 2.23777 9.73006C2.01189 10.056 2 10.2516 2 14.4108C2 18.7264 2 18.7525 2.27344 19.0915C2.48744 19.3783 2.67765 19.4435 3.27209 19.5087C4.22318 19.6 5.05539 19.4566 5.34072 19.1436C5.55471 18.909 5.5666 18.6612 5.5666 14.4108C5.5666 8.98689 5.6736 9.35196 4.06863 9.2998C3.48608 9.28677 2.89165 9.2998 2.74899 9.32588Z" fill="white" style="mix-blend-mode:overlay"/>
<path d="M2.74899 9.32588C2.59443 9.36499 2.36855 9.54753 2.23777 9.73006C2.01189 10.056 2 10.2516 2 14.4108C2 18.7264 2 18.7525 2.27344 19.0915C2.48744 19.3783 2.67765 19.4435 3.27209 19.5087C4.22318 19.6 5.05539 19.4566 5.34072 19.1436C5.55471 18.909 5.5666 18.6612 5.5666 14.4108C5.5666 8.98689 5.6736 9.35196 4.06863 9.2998C3.48608 9.28677 2.89165 9.2998 2.74899 9.32588Z" fill="white" fill-opacity="0.8" style="mix-blend-mode:overlay"/>
<path d="M44.1216 9.32588C43.5034 9.48234 43.4915 9.61272 43.4915 14.4108C43.4915 19.8868 43.3607 19.4826 45.2035 19.4826C46.3448 19.4826 46.4755 19.4566 46.7252 19.1828L46.9986 18.8829V14.3977C46.9986 8.98689 47.1056 9.35195 45.4293 9.2998C44.8587 9.28676 44.2643 9.2998 44.1216 9.32588Z" fill="white" style="mix-blend-mode:overlay"/>
<path d="M44.1216 9.32588C43.5034 9.48234 43.4915 9.61272 43.4915 14.4108C43.4915 19.8868 43.3607 19.4826 45.2035 19.4826C46.3448 19.4826 46.4755 19.4566 46.7252 19.1828L46.9986 18.8829V14.3977C46.9986 8.98689 47.1056 9.35195 45.4293 9.2998C44.8587 9.28676 44.2643 9.2998 44.1216 9.32588Z" fill="white" fill-opacity="0.8" style="mix-blend-mode:overlay"/>
<path d="M15.137 11.5815C15.0181 11.7379 14.7447 11.8553 14.4356 11.8814L13.9481 11.9205L13.9125 13.2504L13.8768 14.5933H14.3523H14.816L14.8873 15.4017C14.923 15.858 15.0062 17.0706 15.0775 18.1136C15.1489 19.1567 15.2559 20.2258 15.3153 20.4996C15.4342 21.1124 15.9335 22.012 17.0986 23.7461C19.0484 26.6406 19.5952 27.6054 20.1897 29.2613C21.1527 31.9341 21.2597 34.1376 20.5226 36.2367C20.1302 37.371 20.1302 37.371 18.9651 36.9668C18.335 36.7582 17.6812 36.6278 17.2175 36.6278C16.5636 36.6278 16.4447 36.667 16.1356 37.006C15.7314 37.4493 15.6958 37.7752 16.0168 38.2055L16.2426 38.5053L15.3985 38.9747C14.4118 39.5093 13.9006 40.1351 13.8055 40.9044C13.6985 41.7388 13.8649 42.3255 14.3404 42.9123C15.1727 43.9162 16.2783 44.203 18.0616 43.864C19.7379 43.5511 21.0219 43.2121 22.8884 42.5602C24.3032 42.0648 24.6242 41.9865 24.8976 42.1039C25.6109 42.4038 28.9516 43.4338 30.0454 43.6945C30.6755 43.838 31.6385 43.9684 32.1972 43.9814C33.5525 43.9944 34.3966 43.5902 34.9316 42.6776C35.3834 41.8953 35.4191 40.9044 35.0386 40.1612C34.789 39.6657 33.9924 39.0138 33.291 38.714C32.9462 38.5705 32.9224 38.5314 33.077 38.3359C33.2553 38.1142 33.3029 37.9056 33.2791 37.4362C33.2553 36.7843 31.9832 36.4062 30.9965 36.7713C30.7706 36.8625 29.6531 37.358 28.5117 37.8926C23.7206 40.1482 21.5093 40.6045 19.7141 39.7179C19.3694 39.5484 18.763 38.9747 18.763 38.8183C18.763 38.7661 19.2624 38.714 19.8687 38.714C21.1764 38.714 22.6387 38.4532 24.3864 37.9186C25.6466 37.5275 28.2383 36.4584 28.4404 36.2367C28.488 36.1845 28.4404 35.7934 28.3334 35.3762C27.8935 33.7073 28.167 31.1909 29.0348 28.9353C29.4747 27.814 30.509 25.9496 31.579 24.398C32.6609 22.8204 33.4812 21.4775 33.6833 20.9299C33.7903 20.6561 33.9211 19.7043 33.9805 18.7264C34.04 17.7746 34.1232 16.4708 34.1708 15.8058L34.254 14.6063L34.7414 14.5672L35.2288 14.5281L35.2645 13.3025C35.3002 11.9726 35.2526 11.8553 34.6582 11.8553C34.468 11.8553 34.1826 11.7379 34.0162 11.5945C33.612 11.2425 32.8036 11.2425 32.4112 11.5945C32.1259 11.8422 31.8644 11.8422 24.5409 11.8683C17.0035 11.8814 16.956 11.8814 16.6944 11.6076C16.3377 11.2425 15.4461 11.2294 15.137 11.5815ZM32.3637 14.6063C32.3875 14.6324 32.3399 15.6364 32.2567 16.8359C32.0665 19.3262 31.9714 19.6521 30.9965 21.0602C29.6887 22.9508 28.5712 24.0851 27.3823 24.737C26.2053 25.3759 25.8011 25.4802 24.4696 25.4672C23.0548 25.4672 22.3891 25.2455 21.1883 24.385C19.726 23.355 17.5504 20.6039 17.17 19.3262C17.0035 18.7525 16.742 16.1318 16.742 15.0627V14.6063L18.442 14.5672C21.0219 14.5151 32.3042 14.5411 32.3637 14.6063Z" fill="white" style="mix-blend-mode:overlay"/>
<path d="M15.137 11.5815C15.0181 11.7379 14.7447 11.8553 14.4356 11.8814L13.9481 11.9205L13.9125 13.2504L13.8768 14.5933H14.3523H14.816L14.8873 15.4017C14.923 15.858 15.0062 17.0706 15.0775 18.1136C15.1489 19.1567 15.2559 20.2258 15.3153 20.4996C15.4342 21.1124 15.9335 22.012 17.0986 23.7461C19.0484 26.6406 19.5952 27.6054 20.1897 29.2613C21.1527 31.9341 21.2597 34.1376 20.5226 36.2367C20.1302 37.371 20.1302 37.371 18.9651 36.9668C18.335 36.7582 17.6812 36.6278 17.2175 36.6278C16.5636 36.6278 16.4447 36.667 16.1356 37.006C15.7314 37.4493 15.6958 37.7752 16.0168 38.2055L16.2426 38.5053L15.3985 38.9747C14.4118 39.5093 13.9006 40.1351 13.8055 40.9044C13.6985 41.7388 13.8649 42.3255 14.3404 42.9123C15.1727 43.9162 16.2783 44.203 18.0616 43.864C19.7379 43.5511 21.0219 43.2121 22.8884 42.5602C24.3032 42.0648 24.6242 41.9865 24.8976 42.1039C25.6109 42.4038 28.9516 43.4338 30.0454 43.6945C30.6755 43.838 31.6385 43.9684 32.1972 43.9814C33.5525 43.9944 34.3966 43.5902 34.9316 42.6776C35.3834 41.8953 35.4191 40.9044 35.0386 40.1612C34.789 39.6657 33.9924 39.0138 33.291 38.714C32.9462 38.5705 32.9224 38.5314 33.077 38.3359C33.2553 38.1142 33.3029 37.9056 33.2791 37.4362C33.2553 36.7843 31.9832 36.4062 30.9965 36.7713C30.7706 36.8625 29.6531 37.358 28.5117 37.8926C23.7206 40.1482 21.5093 40.6045 19.7141 39.7179C19.3694 39.5484 18.763 38.9747 18.763 38.8183C18.763 38.7661 19.2624 38.714 19.8687 38.714C21.1764 38.714 22.6387 38.4532 24.3864 37.9186C25.6466 37.5275 28.2383 36.4584 28.4404 36.2367C28.488 36.1845 28.4404 35.7934 28.3334 35.3762C27.8935 33.7073 28.167 31.1909 29.0348 28.9353C29.4747 27.814 30.509 25.9496 31.579 24.398C32.6609 22.8204 33.4812 21.4775 33.6833 20.9299C33.7903 20.6561 33.9211 19.7043 33.9805 18.7264C34.04 17.7746 34.1232 16.4708 34.1708 15.8058L34.254 14.6063L34.7414 14.5672L35.2288 14.5281L35.2645 13.3025C35.3002 11.9726 35.2526 11.8553 34.6582 11.8553C34.468 11.8553 34.1826 11.7379 34.0162 11.5945C33.612 11.2425 32.8036 11.2425 32.4112 11.5945C32.1259 11.8422 31.8644 11.8422 24.5409 11.8683C17.0035 11.8814 16.956 11.8814 16.6944 11.6076C16.3377 11.2425 15.4461 11.2294 15.137 11.5815ZM32.3637 14.6063C32.3875 14.6324 32.3399 15.6364 32.2567 16.8359C32.0665 19.3262 31.9714 19.6521 30.9965 21.0602C29.6887 22.9508 28.5712 24.0851 27.3823 24.737C26.2053 25.3759 25.8011 25.4802 24.4696 25.4672C23.0548 25.4672 22.3891 25.2455 21.1883 24.385C19.726 23.355 17.5504 20.6039 17.17 19.3262C17.0035 18.7525 16.742 16.1318 16.742 15.0627V14.6063L18.442 14.5672C21.0219 14.5151 32.3042 14.5411 32.3637 14.6063Z" fill="white" fill-opacity="0.8" style="mix-blend-mode:overlay"/>
<path d="M23.3521 16.9402C22.1751 17.4487 21.4974 18.583 21.4974 20.0694C21.4974 22.3771 23.3877 23.9548 25.4207 23.3289C26.3004 23.0682 26.9187 22.4945 27.3229 21.5818C27.6676 20.8386 27.7033 20.63 27.6558 19.9129C27.632 19.4566 27.5131 18.8699 27.3942 18.6091C27.1326 17.9963 26.4669 17.2792 25.8962 16.9793C25.2661 16.6403 24.0654 16.6273 23.3521 16.9402Z" fill="white" style="mix-blend-mode:overlay"/>
<path d="M23.3521 16.9402C22.1751 17.4487 21.4974 18.583 21.4974 20.0694C21.4974 22.3771 23.3877 23.9548 25.4207 23.3289C26.3004 23.0682 26.9187 22.4945 27.3229 21.5818C27.6676 20.8386 27.7033 20.63 27.6558 19.9129C27.632 19.4566 27.5131 18.8699 27.3942 18.6091C27.1326 17.9963 26.4669 17.2792 25.8962 16.9793C25.2661 16.6403 24.0654 16.6273 23.3521 16.9402Z" fill="white" fill-opacity="0.8" style="mix-blend-mode:overlay"/>
</svg>
