<svg width="229" height="174" viewBox="0 0 229 174" fill="none" xmlns="http://www.w3.org/2000/svg">
<g style="mix-blend-mode:overlay">
<ellipse cx="19.4527" cy="19.0865" rx="19.4527" ry="19.0865" transform="matrix(0.911174 0.412022 -0.432516 0.901626 51.7575 36.7383)" fill="black"/>
<ellipse cx="19.4527" cy="19.0865" rx="19.4527" ry="19.0865" transform="matrix(0.911174 0.412022 -0.432516 0.901626 69.381 0)" fill="black"/>
<ellipse cx="19.4527" cy="19.0865" rx="19.4527" ry="19.0865" transform="matrix(0.911174 0.412022 -0.432516 0.901626 34.134 73.4761)" fill="black"/>
<ellipse cx="19.4527" cy="19.0865" rx="19.4527" ry="19.0865" transform="matrix(0.911174 0.412022 -0.432516 0.901626 16.5105 110.214)" fill="black"/>
</g>
<g style="mix-blend-mode:overlay">
<ellipse cx="19.4527" cy="19.0865" rx="19.4527" ry="19.0865" transform="matrix(0.911174 0.412022 -0.432516 0.901626 110.357 41.4985)" fill="black"/>
<ellipse cx="19.4527" cy="19.0865" rx="19.4527" ry="19.0865" transform="matrix(0.911174 0.412022 -0.432516 0.901626 92.7334 78.2368)" fill="black"/>
<ellipse cx="19.4527" cy="19.0865" rx="19.4527" ry="19.0865" transform="matrix(0.911174 0.412022 -0.432516 0.901626 75.1099 114.975)" fill="black"/>
</g>
<g style="mix-blend-mode:overlay">
<ellipse cx="19.4527" cy="19.0865" rx="19.4527" ry="19.0865" transform="matrix(0.911174 0.412022 -0.432516 0.901626 151.786 82.0537)" fill="black"/>
<ellipse cx="19.4527" cy="19.0865" rx="19.4527" ry="19.0865" transform="matrix(0.911174 0.412022 -0.432516 0.901626 134.162 118.792)" fill="black"/>
</g>
<g style="mix-blend-mode:overlay">
<ellipse cx="19.4527" cy="19.0865" rx="19.4527" ry="19.0865" transform="matrix(0.911174 0.412022 -0.432516 0.901626 192.761 123.552)" fill="black"/>
</g>
</svg>
