<svg width="48" height="49" viewBox="0 0 48 49" fill="none" xmlns="http://www.w3.org/2000/svg">
<path d="M21.2072 6.85994C20.2359 7.87812 19.3201 8.88063 19.1536 9.08427C19.001 9.28791 16.6838 11.8569 14.0198 14.7861C11.3557 17.7153 8.48357 20.8795 7.62331 21.8037C5.95828 23.6521 5.79178 23.9967 6.16641 24.8896C6.48554 25.6258 7.10993 25.8451 7.69268 25.4221C7.92856 25.2498 11.5222 21.3181 15.6987 16.6658C19.8751 12.0135 23.3717 8.20707 23.4688 8.20707C23.6076 8.20707 25.7027 10.4941 36.9278 22.8689C38.1488 24.216 39.2866 25.4065 39.4531 25.5005C40.3966 26.0331 41.3956 24.6076 40.8406 23.5581C40.688 23.2448 37.8019 20.0493 33.5284 15.4127C32.5016 14.3005 29.9624 11.4966 27.895 9.19392C23.1913 3.96204 23.7741 4.16568 21.2072 6.85994Z" fill="white" style="mix-blend-mode:overlay"/>
<path d="M21.2072 6.85994C20.2359 7.87812 19.3201 8.88063 19.1536 9.08427C19.001 9.28791 16.6838 11.8569 14.0198 14.7861C11.3557 17.7153 8.48357 20.8795 7.62331 21.8037C5.95828 23.6521 5.79178 23.9967 6.16641 24.8896C6.48554 25.6258 7.10993 25.8451 7.69268 25.4221C7.92856 25.2498 11.5222 21.3181 15.6987 16.6658C19.8751 12.0135 23.3717 8.20707 23.4688 8.20707C23.6076 8.20707 25.7027 10.4941 36.9278 22.8689C38.1488 24.216 39.2866 25.4065 39.4531 25.5005C40.3966 26.0331 41.3956 24.6076 40.8406 23.5581C40.688 23.2448 37.8019 20.0493 33.5284 15.4127C32.5016 14.3005 29.9624 11.4966 27.895 9.19392C23.1913 3.96204 23.7741 4.16568 21.2072 6.85994Z" fill="white" fill-opacity="0.8" style="mix-blend-mode:overlay"/>
<path d="M30.67 6.78159C30.337 7.09487 30.2815 7.29851 30.226 8.16005L30.1705 9.16256L33.0566 12.3268L35.9565 15.4753L35.9981 11.6062C36.012 9.47585 35.9981 7.58047 35.9565 7.3925C35.9149 7.20452 35.7484 6.89124 35.5819 6.71893C35.3044 6.43697 35.0962 6.40564 33.1676 6.40564C31.1418 6.40564 31.0308 6.42131 30.67 6.78159Z" fill="white" style="mix-blend-mode:overlay"/>
<path d="M30.67 6.78159C30.337 7.09487 30.2815 7.29851 30.226 8.16005L30.1705 9.16256L33.0566 12.3268L35.9565 15.4753L35.9981 11.6062C36.012 9.47585 35.9981 7.58047 35.9565 7.3925C35.9149 7.20452 35.7484 6.89124 35.5819 6.71893C35.3044 6.43697 35.0962 6.40564 33.1676 6.40564C31.1418 6.40564 31.0308 6.42131 30.67 6.78159Z" fill="white" fill-opacity="0.8" style="mix-blend-mode:overlay"/>
<path d="M20.8325 13.8775C11.2864 24.4509 11.0644 24.7016 10.9811 25.2342C10.9395 25.5161 10.9117 29.5888 10.9395 34.2881C10.9811 42.1359 10.995 42.8565 11.2309 43.2324C11.3557 43.4517 11.6332 43.718 11.8275 43.812C12.0773 43.953 15.2686 44 23.6214 44H35.0824L35.5541 43.4674L36.0259 42.9348V33.8652V24.7956L33.7781 22.2893C30.4342 18.5925 24.4817 12.0448 23.9406 11.4652L23.4688 10.964L20.8325 13.8775ZM22.3449 23.8244C22.5253 24.1063 22.5669 24.6389 22.5669 26.4403C22.5669 29.4322 22.7057 29.2755 20.1388 29.2755C18.4737 29.2755 18.1269 29.2286 17.9742 29.0093C17.8216 28.8213 17.78 28.1634 17.78 26.3463C17.78 24.122 17.8077 23.9027 18.0436 23.6991C18.2517 23.5424 18.7929 23.4797 20.222 23.4797C22.0397 23.4797 22.1507 23.4954 22.3449 23.8244ZM28.9773 23.746C29.1993 23.9653 29.227 24.2786 29.227 26.4716C29.227 28.7586 29.2132 28.9623 28.9634 29.1189C28.8108 29.1972 27.8534 29.2755 26.8127 29.2755C25.3003 29.2755 24.898 29.2286 24.7315 29.0249C24.5511 28.8213 24.5095 28.367 24.5095 26.4246C24.5095 23.3231 24.3846 23.4797 26.8405 23.4797C28.3945 23.4797 28.7691 23.5267 28.9773 23.746ZM22.4282 31.7662C22.4975 31.9385 22.5669 33.0976 22.5669 34.3821C22.5669 37.421 22.6918 37.2643 20.2081 37.2643C18.7929 37.2643 18.2517 37.2017 18.0436 37.045C17.8077 36.8414 17.78 36.6064 17.78 34.2881C17.78 32.2204 17.8216 31.7505 17.9881 31.6252C18.0991 31.5469 19.112 31.4685 20.2359 31.4685C22.109 31.4685 22.2894 31.4999 22.4282 31.7662ZM29.0605 31.6565C29.1715 31.7818 29.227 32.5964 29.227 34.3038C29.227 36.3402 29.1854 36.8101 29.005 37.0137C28.8385 37.2174 28.4361 37.2643 26.8682 37.2643C25.3003 37.2643 24.898 37.2174 24.7315 37.0137C24.5511 36.8101 24.5095 36.3402 24.5095 34.3038C24.5095 32.5964 24.565 31.7818 24.676 31.6565C24.787 31.5312 25.4807 31.4685 26.8682 31.4685C28.2558 31.4685 28.9495 31.5312 29.0605 31.6565Z" fill="white" style="mix-blend-mode:overlay"/>
<path d="M20.8325 13.8775C11.2864 24.4509 11.0644 24.7016 10.9811 25.2342C10.9395 25.5161 10.9117 29.5888 10.9395 34.2881C10.9811 42.1359 10.995 42.8565 11.2309 43.2324C11.3557 43.4517 11.6332 43.718 11.8275 43.812C12.0773 43.953 15.2686 44 23.6214 44H35.0824L35.5541 43.4674L36.0259 42.9348V33.8652V24.7956L33.7781 22.2893C30.4342 18.5925 24.4817 12.0448 23.9406 11.4652L23.4688 10.964L20.8325 13.8775ZM22.3449 23.8244C22.5253 24.1063 22.5669 24.6389 22.5669 26.4403C22.5669 29.4322 22.7057 29.2755 20.1388 29.2755C18.4737 29.2755 18.1269 29.2286 17.9742 29.0093C17.8216 28.8213 17.78 28.1634 17.78 26.3463C17.78 24.122 17.8077 23.9027 18.0436 23.6991C18.2517 23.5424 18.7929 23.4797 20.222 23.4797C22.0397 23.4797 22.1507 23.4954 22.3449 23.8244ZM28.9773 23.746C29.1993 23.9653 29.227 24.2786 29.227 26.4716C29.227 28.7586 29.2132 28.9623 28.9634 29.1189C28.8108 29.1972 27.8534 29.2755 26.8127 29.2755C25.3003 29.2755 24.898 29.2286 24.7315 29.0249C24.5511 28.8213 24.5095 28.367 24.5095 26.4246C24.5095 23.3231 24.3846 23.4797 26.8405 23.4797C28.3945 23.4797 28.7691 23.5267 28.9773 23.746ZM22.4282 31.7662C22.4975 31.9385 22.5669 33.0976 22.5669 34.3821C22.5669 37.421 22.6918 37.2643 20.2081 37.2643C18.7929 37.2643 18.2517 37.2017 18.0436 37.045C17.8077 36.8414 17.78 36.6064 17.78 34.2881C17.78 32.2204 17.8216 31.7505 17.9881 31.6252C18.0991 31.5469 19.112 31.4685 20.2359 31.4685C22.109 31.4685 22.2894 31.4999 22.4282 31.7662ZM29.0605 31.6565C29.1715 31.7818 29.227 32.5964 29.227 34.3038C29.227 36.3402 29.1854 36.8101 29.005 37.0137C28.8385 37.2174 28.4361 37.2643 26.8682 37.2643C25.3003 37.2643 24.898 37.2174 24.7315 37.0137C24.5511 36.8101 24.5095 36.3402 24.5095 34.3038C24.5095 32.5964 24.565 31.7818 24.676 31.6565C24.787 31.5312 25.4807 31.4685 26.8682 31.4685C28.2558 31.4685 28.9495 31.5312 29.0605 31.6565Z" fill="white" fill-opacity="0.8" style="mix-blend-mode:overlay"/>
</svg>
