<svg width="272" height="272" viewBox="0 0 272 272" fill="none" xmlns="http://www.w3.org/2000/svg">
<mask id="mask0_59_3823" style="mask-type:luminance" maskUnits="userSpaceOnUse" x="0" y="-1" width="272" height="274">
<path d="M9.37932 84.4141H4.68966C3.44589 84.4141 2.25305 84.9082 1.37357 85.7876C0.494091 86.6671 7.62939e-06 87.8599 7.62939e-06 89.1037V93.7934H4.68966C5.93344 93.7934 7.12627 93.2993 8.00575 92.4198C8.88523 91.5403 9.37932 90.3475 9.37932 89.1037" fill="white"/>
<path d="M0 121.931H9.37931V112.552H4.68966C3.44588 112.552 2.25305 113.046 1.37356 113.925C0.494084 114.805 0 115.998 0 117.241" fill="white"/>
<path d="M9.37931 121.931H0V131.31H9.37931V121.931Z" fill="white"/>
<path d="M9.37932 131.31H7.62939e-06V140.689H4.68966C5.93344 140.689 7.12627 140.195 8.00575 139.316C8.88523 138.436 9.37932 137.243 9.37932 136" fill="white"/>
<path d="M0 159.448H9.37931V150.069H4.68966C3.44588 150.069 2.25305 150.563 1.37356 151.443C0.494084 152.322 0 153.515 0 154.759" fill="white"/>
<path d="M0 178.207H9.37931V168.828H4.68966C3.44588 168.828 2.25305 169.322 1.37356 170.201C0.494084 171.081 0 172.274 0 173.517" fill="white"/>
<path d="M9.37932 178.207H7.62939e-06V187.586H4.68966C5.93344 187.586 7.12627 187.092 8.00575 186.213C8.88523 185.333 9.37932 184.14 9.37932 182.897" fill="white"/>
<path d="M9.37932 112.552H18.7586V103.172H14.069C12.8252 103.172 11.6324 103.667 10.7529 104.546C9.8734 105.425 9.37932 106.618 9.37932 107.862" fill="white"/>
<path d="M18.7586 112.552H9.37932V121.931H18.7586V112.552Z" fill="white"/>
<path d="M18.7586 121.931H9.37932V131.31H18.7586V121.931Z" fill="white"/>
<path d="M9.37932 150.069H18.7586V140.69H14.069C12.8252 140.69 11.6324 141.184 10.7529 142.063C9.8734 142.943 9.37932 144.135 9.37932 145.379" fill="white"/>
<path d="M18.7586 150.069H9.37932V159.448H18.7586V150.069Z" fill="white"/>
<path d="M18.7586 159.448H9.37932V168.828H18.7586V159.448Z" fill="white"/>
<path d="M9.37932 196.966H18.7586V187.587H14.069C12.8252 187.587 11.6324 188.081 10.7529 188.96C9.8734 189.84 9.37932 191.032 9.37932 192.276" fill="white"/>
<path d="M28.1379 75.0342H23.4483C22.2045 75.0342 21.0117 75.5283 20.1322 76.4078C19.2527 77.2872 18.7586 78.4801 18.7586 79.7238V84.4135H23.4483C24.692 84.4135 25.8849 83.9194 26.7644 83.0399C27.6438 82.1604 28.1379 80.9676 28.1379 79.7238" fill="white"/>
<path d="M28.1379 103.172H18.7586V112.552H23.4483C24.692 112.552 25.8849 112.058 26.7644 111.178C27.6438 110.299 28.1379 109.106 28.1379 107.862" fill="white"/>
<path d="M28.1379 121.931H18.7586V131.31H28.1379V121.931Z" fill="white"/>
<path d="M28.1379 131.31H18.7586V140.689H28.1379V131.31Z" fill="white"/>
<path d="M28.1379 159.448H18.7586V168.828H23.4483C24.692 168.828 25.8849 168.333 26.7644 167.454C27.6438 166.575 28.1379 165.382 28.1379 164.138" fill="white"/>
<path d="M18.7586 187.586H28.1379V178.207H23.4483C22.2045 178.207 21.0117 178.701 20.1322 179.581C19.2527 180.46 18.7586 181.653 18.7586 182.897" fill="white"/>
<path d="M28.1379 187.586H18.7586V196.966H23.4483C24.692 196.966 25.8849 196.472 26.7644 195.592C27.6438 194.713 28.1379 193.52 28.1379 192.276" fill="white"/>
<path d="M37.5173 112.552H32.8276C31.5838 112.552 30.391 113.046 29.5115 113.925C28.632 114.805 28.1379 115.998 28.1379 117.241V121.931H32.8276C34.0714 121.931 35.2642 121.437 36.1437 120.557C37.0232 119.678 37.5173 118.485 37.5173 117.241" fill="white"/>
<path d="M37.5172 131.31H28.1379V140.689H37.5172V131.31Z" fill="white"/>
<path d="M37.5173 150.069H32.8276C31.5838 150.069 30.391 150.563 29.5115 151.442C28.632 152.322 28.1379 153.515 28.1379 154.759V159.448H32.8276C34.0714 159.448 35.2642 158.954 36.1437 158.075C37.0232 157.195 37.5173 156.002 37.5173 154.759" fill="white"/>
<path d="M28.1379 178.207H37.5172V168.828H32.8276C31.5838 168.828 30.391 169.322 29.5115 170.201C28.632 171.081 28.1379 172.274 28.1379 173.517" fill="white"/>
<path d="M37.5173 178.207H28.1379V187.586H32.8276C34.0714 187.586 35.2642 187.092 36.1437 186.213C37.0232 185.333 37.5173 184.14 37.5173 182.897" fill="white"/>
<path d="M37.5173 84.4141H46.8966V75.0348H42.2069C40.9631 75.0348 39.7703 75.5288 38.8908 76.4083C38.0113 77.2878 37.5173 78.4806 37.5173 79.7244" fill="white"/>
<path d="M37.5173 103.172H46.8966V93.7931H42.2069C40.9631 93.7931 39.7703 94.2871 38.8908 95.1666C38.0113 96.0461 37.5173 97.2389 37.5173 98.4827" fill="white"/>
<path d="M46.8966 103.172H37.5173V112.552H46.8966V103.172Z" fill="white"/>
<path d="M37.5173 131.31H46.8966V121.931H42.2069C40.9631 121.931 39.7703 122.425 38.8908 123.304C38.0113 124.184 37.5173 125.377 37.5173 126.62" fill="white"/>
<path d="M46.8966 131.31H37.5173V140.689H46.8966V131.31Z" fill="white"/>
<path d="M56.2759 75.0342H46.8965V84.4135H56.2759V75.0342Z" fill="white"/>
<path d="M56.2759 93.793H46.8965V103.172H56.2759V93.793Z" fill="white"/>
<path d="M56.2759 103.172H46.8965V112.552H56.2759V103.172Z" fill="white"/>
<path d="M56.2759 112.552H46.8965V121.931H56.2759V112.552Z" fill="white"/>
<path d="M56.2759 131.31H46.8965V140.689H56.2759V131.31Z" fill="white"/>
<path d="M46.8965 178.207H56.2759V168.828H51.5862C50.3424 168.828 49.1496 169.322 48.2701 170.201C47.3906 171.081 46.8965 172.274 46.8965 173.517" fill="white"/>
<path d="M56.2759 178.207H46.8965V187.586H56.2759V178.207Z" fill="white"/>
<path d="M56.2759 187.586H46.8965V196.966H56.2759V187.586Z" fill="white"/>
<path d="M65.6552 75.0342H56.2759V84.4135H60.9655C62.2093 84.4135 63.4021 83.9194 64.2816 83.0399C65.1611 82.1604 65.6552 80.9676 65.6552 79.7238" fill="white"/>
<path d="M65.6552 93.793H56.2759V103.172H65.6552V93.793Z" fill="white"/>
<path d="M65.6552 112.552H56.2759V121.931H60.9655C62.2093 121.931 63.4021 121.437 64.2816 120.558C65.1611 119.678 65.6552 118.485 65.6552 117.241" fill="white"/>
<path d="M65.6552 131.31H56.2759V140.689H65.6552V131.31Z" fill="white"/>
<path d="M65.6552 150.069H60.9655C59.7218 150.069 58.5289 150.563 57.6494 151.442C56.77 152.322 56.2759 153.515 56.2759 154.759V159.448H60.9655C62.2093 159.448 63.4021 158.954 64.2816 158.075C65.1611 157.195 65.6552 156.002 65.6552 154.759" fill="white"/>
<path d="M65.6552 168.828H56.2759V178.207H65.6552V168.828Z" fill="white"/>
<path d="M65.6552 187.586H56.2759V196.966H60.9655C62.2093 196.966 63.4021 196.472 64.2816 195.592C65.1611 194.713 65.6552 193.52 65.6552 192.276" fill="white"/>
<path d="M65.6552 93.793H75.0345V84.4137H70.3448C69.1011 84.4137 67.9082 84.9077 67.0287 85.7872C66.1493 86.6667 65.6552 87.8595 65.6552 89.1033" fill="white"/>
<path d="M75.0345 93.793H65.6552V103.172H75.0345V93.793Z" fill="white"/>
<path d="M75.0345 103.172H65.6552V112.552H75.0345V103.172Z" fill="white"/>
<path d="M65.6552 131.31H75.0345V121.931H70.3448C69.1011 121.931 67.9082 122.425 67.0287 123.304C66.1493 124.184 65.6552 125.377 65.6552 126.62" fill="white"/>
<path d="M75.0345 131.31H65.6552V140.689H75.0345V131.31Z" fill="white"/>
<path d="M65.6552 168.828H75.0345V159.448H70.3448C69.1011 159.448 67.9082 159.942 67.0287 160.822C66.1493 161.701 65.6552 162.894 65.6552 164.138" fill="white"/>
<path d="M75.0345 168.828H65.6552V178.207H75.0345V168.828Z" fill="white"/>
<path d="M75.0345 178.207H65.6552V187.586H75.0345V178.207Z" fill="white"/>
<path d="M84.4138 9.37891H79.7241C78.4804 9.37891 77.2875 9.87299 76.408 10.7525C75.5286 11.632 75.0345 12.8248 75.0345 14.0686V18.7582H79.7241C80.9679 18.7582 82.1607 18.2641 83.0402 17.3847C83.9197 16.5052 84.4138 15.3123 84.4138 14.0686" fill="white"/>
<path d="M75.0345 46.8965H84.4138V37.5172H79.7241C78.4804 37.5172 77.2875 38.0113 76.408 38.8907C75.5286 39.7702 75.0345 40.9631 75.0345 42.2068" fill="white"/>
<path d="M84.4138 56.2764H79.7241C78.4804 56.2764 77.2875 56.7705 76.408 57.6499C75.5286 58.5294 75.0345 59.7222 75.0345 60.966V65.6557H79.7241C80.9679 65.6557 82.1607 65.1616 83.0402 64.2821C83.9197 63.4026 84.4138 62.2098 84.4138 60.966" fill="white"/>
<path d="M75.0345 84.4141H84.4138V75.0348H79.7241C78.4804 75.0348 77.2875 75.5288 76.408 76.4083C75.5286 77.2878 75.0345 78.4806 75.0345 79.7244" fill="white"/>
<path d="M84.4138 84.4141H75.0345V93.7934H84.4138V84.4141Z" fill="white"/>
<path d="M84.4138 93.793H75.0345V103.172H84.4138V93.793Z" fill="white"/>
<path d="M84.4138 103.172H75.0345V112.552H79.7241C80.9679 112.552 82.1607 112.058 83.0402 111.178C83.9197 110.299 84.4138 109.106 84.4138 107.862" fill="white"/>
<path d="M84.4138 121.931H75.0345V131.31H84.4138V121.931Z" fill="white"/>
<path d="M84.4138 131.31H75.0345V140.689H84.4138V131.31Z" fill="white"/>
<path d="M84.4138 140.69H75.0345V150.069H84.4138V140.69Z" fill="white"/>
<path d="M84.4138 150.069H75.0345V159.448H84.4138V150.069Z" fill="white"/>
<path d="M84.4138 168.828H75.0345V178.207H84.4138V168.828Z" fill="white"/>
<path d="M84.4138 178.207H75.0345V187.586H84.4138V178.207Z" fill="white"/>
<path d="M84.4138 187.586H75.0345V196.966H84.4138V187.586Z" fill="white"/>
<path d="M84.4138 196.966H75.0345V206.345H84.4138V196.966Z" fill="white"/>
<path d="M75.0345 225.104H84.4138V215.724H79.7241C78.4804 215.724 77.2875 216.218 76.408 217.098C75.5286 217.977 75.0345 219.17 75.0345 220.414" fill="white"/>
<path d="M84.4138 225.104H75.0345V234.483H84.4138V225.104Z" fill="white"/>
<path d="M84.4138 243.862H79.7241C78.4804 243.862 77.2875 244.356 76.408 245.235C75.5286 246.115 75.0345 247.308 75.0345 248.551V253.241H79.7241C80.9679 253.241 82.1607 252.747 83.0402 251.868C83.9197 250.988 84.4138 249.795 84.4138 248.551" fill="white"/>
<path d="M93.7931 18.7588H89.1035C87.8597 18.7588 86.6668 19.2529 85.7874 20.1324C84.9079 21.0118 84.4138 22.2047 84.4138 23.4484V28.1381H89.1035C90.3472 28.1381 91.5401 27.644 92.4195 26.7645C93.299 25.8851 93.7931 24.6922 93.7931 23.4484" fill="white"/>
<path d="M93.7931 37.5171H84.4138V46.8964H89.1035C90.3472 46.8964 91.5401 46.4023 92.4195 45.5228C93.299 44.6434 93.7931 43.4505 93.7931 42.2067" fill="white"/>
<path d="M84.4138 75.0342H93.7931V65.6549H89.1034C87.8597 65.6549 86.6668 66.149 85.7874 67.0284C84.9079 67.9079 84.4138 69.1008 84.4138 70.3445" fill="white"/>
<path d="M93.7931 75.0342H84.4138V84.4135H93.7931V75.0342Z" fill="white"/>
<path d="M93.7931 84.4141H84.4138V93.7934H93.7931V84.4141Z" fill="white"/>
<path d="M93.7931 93.793H84.4138V103.172H89.1035C90.3472 103.172 91.5401 102.678 92.4195 101.799C93.299 100.919 93.7931 99.7264 93.7931 98.4826" fill="white"/>
<path d="M93.7931 140.69H84.4138V150.069H93.7931V140.69Z" fill="white"/>
<path d="M93.7931 150.069H84.4138V159.448H93.7931V150.069Z" fill="white"/>
<path d="M93.7931 159.448H84.4138V168.828H93.7931V159.448Z" fill="white"/>
<path d="M93.7931 178.207H84.4138V187.586H93.7931V178.207Z" fill="white"/>
<path d="M93.7931 187.586H84.4138V196.966H93.7931V187.586Z" fill="white"/>
<path d="M93.7931 196.966H84.4138V206.345H93.7931V196.966Z" fill="white"/>
<path d="M93.7931 206.345H84.4138V215.725H93.7931V206.345Z" fill="white"/>
<path d="M93.7931 215.724H84.4138V225.103H93.7931V215.724Z" fill="white"/>
<path d="M93.7931 225.104H84.4138V234.483H93.7931V225.104Z" fill="white"/>
<path d="M84.4138 262.621H93.7931V253.241H89.1034C87.8597 253.241 86.6668 253.735 85.7874 254.615C84.9079 255.494 84.4138 256.687 84.4138 257.931" fill="white"/>
<path d="M93.7931 262.621H84.4138V272H93.7931V262.621Z" fill="white"/>
<path d="M93.7931 9.37891H103.172V-0.000404358H98.4828C97.239 -0.000404358 96.0462 0.493679 95.1667 1.37316C94.2872 2.25264 93.7931 3.44548 93.7931 4.68925" fill="white"/>
<path d="M93.7931 37.5171H103.172V28.1378H98.4828C97.239 28.1378 96.0462 28.6319 95.1667 29.5113C94.2872 30.3908 93.7931 31.5837 93.7931 32.8274" fill="white"/>
<path d="M103.172 56.2764H98.4827C97.239 56.2764 96.0461 56.7705 95.1667 57.6499C94.2872 58.5294 93.7931 59.7222 93.7931 60.966V65.6557H98.4827C99.7265 65.6557 100.919 65.1616 101.799 64.2821C102.678 63.4026 103.172 62.2098 103.172 60.966" fill="white"/>
<path d="M93.7931 131.31H103.172V121.931H98.4828C97.239 121.931 96.0462 122.425 95.1667 123.304C94.2872 124.184 93.7931 125.377 93.7931 126.62" fill="white"/>
<path d="M103.172 131.31H93.7931V140.689H98.4827C99.7265 140.689 100.919 140.195 101.799 139.316C102.678 138.436 103.172 137.243 103.172 136" fill="white"/>
<path d="M103.172 159.448H93.7931V168.828H103.172V159.448Z" fill="white"/>
<path d="M103.172 196.966H93.7931V206.345H103.172V196.966Z" fill="white"/>
<path d="M103.172 225.104H93.7931V234.483H103.172V225.104Z" fill="white"/>
<path d="M103.172 262.621H93.7931V272H103.172V262.621Z" fill="white"/>
<path d="M112.552 0H103.172V9.37931H112.552V0Z" fill="white"/>
<path d="M112.552 9.37891H103.172V18.7582H112.552V9.37891Z" fill="white"/>
<path d="M112.552 28.1377H103.172V37.517H107.862C109.106 37.517 110.299 37.0229 111.178 36.1434C112.058 35.264 112.552 34.0711 112.552 32.8274" fill="white"/>
<path d="M103.172 75.0342H112.552V65.6549H107.862C106.618 65.6549 105.425 66.149 104.546 67.0284C103.666 67.9079 103.172 69.1008 103.172 70.3445" fill="white"/>
<path d="M112.552 75.0342H103.172V84.4135H112.552V75.0342Z" fill="white"/>
<path d="M112.552 84.4141H103.172V93.7934H112.552V84.4141Z" fill="white"/>
<path d="M112.552 93.793H103.172V103.172H107.862C109.106 103.172 110.299 102.678 111.178 101.799C112.058 100.919 112.552 99.7264 112.552 98.4826" fill="white"/>
<path d="M103.172 121.931H112.552V112.552H107.862C106.618 112.552 105.425 113.046 104.546 113.925C103.666 114.805 103.172 115.998 103.172 117.241" fill="white"/>
<path d="M112.552 121.931H103.172V131.31H112.552V121.931Z" fill="white"/>
<path d="M112.552 159.448H103.172V168.828H112.552V159.448Z" fill="white"/>
<path d="M112.552 168.828H103.172V178.207H112.552V168.828Z" fill="white"/>
<path d="M103.172 196.966H112.552V187.587H107.862C106.618 187.587 105.425 188.081 104.546 188.96C103.666 189.84 103.172 191.032 103.172 192.276" fill="white"/>
<path d="M112.552 196.966H103.172V206.345H107.862C109.106 206.345 110.299 205.851 111.178 204.972C112.058 204.092 112.552 202.899 112.552 201.655" fill="white"/>
<path d="M103.172 225.104H112.552V215.724H107.862C106.618 215.724 105.425 216.218 104.546 217.098C103.666 217.977 103.172 219.17 103.172 220.414" fill="white"/>
<path d="M112.552 225.104H103.172V234.483H112.552V225.104Z" fill="white"/>
<path d="M112.552 234.483H103.172V243.862H107.862C109.106 243.862 110.299 243.368 111.178 242.489C112.058 241.609 112.552 240.416 112.552 239.173" fill="white"/>
<path d="M103.172 262.621H112.552V253.241H107.862C106.618 253.241 105.425 253.735 104.546 254.615C103.666 255.494 103.172 256.687 103.172 257.931" fill="white"/>
<path d="M112.552 262.621H103.172V272H112.552V262.621Z" fill="white"/>
<path d="M121.931 9.37891H112.552V18.7582H117.241C118.485 18.7582 119.678 18.2641 120.557 17.3847C121.437 16.5052 121.931 15.3123 121.931 14.0686" fill="white"/>
<path d="M121.931 37.5171H117.241C115.998 37.5171 114.805 38.0112 113.925 38.8907C113.046 39.7701 112.552 40.963 112.552 42.2067V46.8964H117.241C118.485 46.8964 119.678 46.4023 120.557 45.5228C121.437 44.6434 121.931 43.4505 121.931 42.2067" fill="white"/>
<path d="M112.552 65.6553H121.931V56.276H117.241C115.998 56.276 114.805 56.77 113.925 57.6495C113.046 58.529 112.552 59.7218 112.552 60.9656" fill="white"/>
<path d="M121.931 65.6553H112.552V75.0346H121.931V65.6553Z" fill="white"/>
<path d="M121.931 75.0342H112.552V84.4135H121.931V75.0342Z" fill="white"/>
<path d="M112.552 112.552H121.931V103.172H117.241C115.998 103.172 114.805 103.667 113.925 104.546C113.046 105.425 112.552 106.618 112.552 107.862" fill="white"/>
<path d="M121.931 121.931H112.552V131.31H121.931V121.931Z" fill="white"/>
<path d="M112.552 159.448H121.931V150.069H117.241C115.998 150.069 114.805 150.563 113.925 151.442C113.046 152.322 112.552 153.515 112.552 154.759" fill="white"/>
<path d="M121.931 159.448H112.552V168.828H121.931V159.448Z" fill="white"/>
<path d="M121.931 168.828H112.552V178.207H121.931V168.828Z" fill="white"/>
<path d="M121.931 178.207H112.552V187.586H117.241C118.485 187.586 119.678 187.092 120.557 186.213C121.437 185.333 121.931 184.14 121.931 182.897" fill="white"/>
<path d="M121.931 215.724H112.552V225.103H117.241C118.485 225.103 119.678 224.609 120.557 223.73C121.437 222.85 121.931 221.658 121.931 220.414" fill="white"/>
<path d="M121.931 262.621H112.552V272H117.241C118.485 272 119.678 271.506 120.557 270.626C121.437 269.747 121.931 268.554 121.931 267.31" fill="white"/>
<path d="M131.31 18.7588H126.621C125.377 18.7588 124.184 19.2529 123.305 20.1324C122.425 21.0118 121.931 22.2047 121.931 23.4484V28.1381H126.621C127.864 28.1381 129.057 27.644 129.937 26.7645C130.816 25.8851 131.31 24.6922 131.31 23.4484" fill="white"/>
<path d="M121.931 56.2764H131.31V46.8971H126.621C125.377 46.8971 124.184 47.3911 123.305 48.2706C122.425 49.1501 121.931 50.3429 121.931 51.5867" fill="white"/>
<path d="M131.31 65.6553H121.931V75.0346H131.31V65.6553Z" fill="white"/>
<path d="M131.31 75.0342H121.931V84.4135H126.621C127.864 84.4135 129.057 83.9194 129.937 83.0399C130.816 82.1604 131.31 80.9676 131.31 79.7238" fill="white"/>
<path d="M131.31 103.172H121.931V112.552H131.31V103.172Z" fill="white"/>
<path d="M131.31 121.931H121.931V131.31H126.621C127.864 131.31 129.057 130.816 129.937 129.937C130.816 129.057 131.31 127.865 131.31 126.621" fill="white"/>
<path d="M131.31 140.69H126.621C125.377 140.69 124.184 141.184 123.305 142.064C122.425 142.943 121.931 144.136 121.931 145.38V150.069H126.621C127.864 150.069 129.057 149.575 129.937 148.696C130.816 147.816 131.31 146.623 131.31 145.38" fill="white"/>
<path d="M131.31 159.448H121.931V168.828H131.31V159.448Z" fill="white"/>
<path d="M131.31 168.828H121.931V178.207H131.31V168.828Z" fill="white"/>
<path d="M131.31 206.345H126.621C125.377 206.345 124.184 206.839 123.305 207.719C122.425 208.598 121.931 209.791 121.931 211.035V215.725H126.621C127.864 215.725 129.057 215.23 129.937 214.351C130.816 213.471 131.31 212.279 131.31 211.035" fill="white"/>
<path d="M121.931 234.483H131.31V225.104H126.621C125.377 225.104 124.184 225.598 123.305 226.477C122.425 227.357 121.931 228.549 121.931 229.793" fill="white"/>
<path d="M131.31 243.862H126.621C125.377 243.862 124.184 244.356 123.305 245.235C122.425 246.115 121.931 247.308 121.931 248.551V253.241H126.621C127.864 253.241 129.057 252.747 129.937 251.868C130.816 250.988 131.31 249.795 131.31 248.551" fill="white"/>
<path d="M140.69 28.1377H136C134.756 28.1377 133.563 28.6318 132.684 29.5113C131.804 30.3907 131.31 31.5836 131.31 32.8274V37.517H136C137.244 37.517 138.437 37.0229 139.316 36.1434C140.196 35.264 140.69 34.0711 140.69 32.8274" fill="white"/>
<path d="M140.69 46.8965H131.31V56.2758H140.69V46.8965Z" fill="white"/>
<path d="M140.69 56.2764H131.31V65.6557H140.69V56.2764Z" fill="white"/>
<path d="M140.69 65.6553H131.31V75.0346H140.69V65.6553Z" fill="white"/>
<path d="M140.69 103.172H131.31V112.552H140.69V103.172Z" fill="white"/>
<path d="M140.69 150.069H136C134.756 150.069 133.563 150.563 132.684 151.442C131.804 152.322 131.31 153.515 131.31 154.759V159.448H136C137.244 159.448 138.437 158.954 139.316 158.075C140.196 157.195 140.69 156.002 140.69 154.759" fill="white"/>
<path d="M140.69 168.828H131.31V178.207H136C137.244 178.207 138.437 177.713 139.316 176.833C140.196 175.954 140.69 174.761 140.69 173.517" fill="white"/>
<path d="M131.31 196.966H140.69V187.587H136C134.756 187.587 133.563 188.081 132.684 188.96C131.804 189.84 131.31 191.032 131.31 192.276" fill="white"/>
<path d="M140.69 196.966H131.31V206.345H136C137.244 206.345 138.437 205.851 139.316 204.972C140.196 204.092 140.69 202.899 140.69 201.655" fill="white"/>
<path d="M140.69 225.104H131.31V234.483H136C137.244 234.483 138.437 233.989 139.316 233.109C140.196 232.23 140.69 231.037 140.69 229.793" fill="white"/>
<path d="M131.31 272H140.69V262.621H136C134.756 262.621 133.563 263.115 132.684 263.995C131.804 264.874 131.31 266.067 131.31 267.311" fill="white"/>
<path d="M140.69 18.7588H150.069V9.37948H145.379C144.136 9.37948 142.943 9.87356 142.063 10.753C141.184 11.6325 140.69 12.8254 140.69 14.0691" fill="white"/>
<path d="M150.069 46.8965H140.69V56.2758H150.069V46.8965Z" fill="white"/>
<path d="M150.069 65.6553H140.69V75.0346H150.069V65.6553Z" fill="white"/>
<path d="M150.069 84.4141H145.379C144.136 84.4141 142.943 84.9081 142.063 85.7876C141.184 86.6671 140.69 87.8599 140.69 89.1037V93.7934H145.379C146.623 93.7934 147.816 93.2993 148.695 92.4198C149.575 91.5403 150.069 90.3475 150.069 89.1037" fill="white"/>
<path d="M150.069 103.172H140.69V112.552H150.069V103.172Z" fill="white"/>
<path d="M150.069 112.552H140.69V121.931H150.069V112.552Z" fill="white"/>
<path d="M150.069 121.931H140.69V131.31H150.069V121.931Z" fill="white"/>
<path d="M150.069 131.31H140.69V140.689H150.069V131.31Z" fill="white"/>
<path d="M140.69 215.724H150.069V206.345H145.379C144.136 206.345 142.943 206.839 142.063 207.718C141.184 208.598 140.69 209.791 140.69 211.034" fill="white"/>
<path d="M150.069 215.724H140.69V225.103H145.379C146.623 225.103 147.816 224.609 148.695 223.73C149.575 222.85 150.069 221.658 150.069 220.414" fill="white"/>
<path d="M150.069 234.483H145.379C144.136 234.483 142.943 234.977 142.063 235.856C141.184 236.736 140.69 237.929 140.69 239.173V243.862H145.379C146.623 243.862 147.816 243.368 148.695 242.489C149.575 241.609 150.069 240.416 150.069 239.173" fill="white"/>
<path d="M150.069 262.621H140.69V272H150.069V262.621Z" fill="white"/>
<path d="M159.448 9.37891H150.069V18.7582H159.448V9.37891Z" fill="white"/>
<path d="M159.448 18.7588H150.069V28.1381H159.448V18.7588Z" fill="white"/>
<path d="M159.448 28.1377H150.069V37.517H159.448V28.1377Z" fill="white"/>
<path d="M159.448 37.5171H150.069V46.8964H159.448V37.5171Z" fill="white"/>
<path d="M159.448 46.8965H150.069V56.2758H159.448V46.8965Z" fill="white"/>
<path d="M159.448 56.2764H150.069V65.6557H159.448V56.2764Z" fill="white"/>
<path d="M159.448 65.6553H150.069V75.0346H159.448V65.6553Z" fill="white"/>
<path d="M150.069 103.172H159.448V93.7931H154.759C153.515 93.7931 152.322 94.2871 151.443 95.1666C150.563 96.0461 150.069 97.2389 150.069 98.4827" fill="white"/>
<path d="M159.448 103.172H150.069V112.552H159.448V103.172Z" fill="white"/>
<path d="M159.448 121.931H150.069V131.31H159.448V121.931Z" fill="white"/>
<path d="M159.448 131.31H150.069V140.689H154.759C156.002 140.689 157.195 140.195 158.075 139.316C158.954 138.436 159.448 137.243 159.448 136" fill="white"/>
<path d="M159.448 150.069H154.759C153.515 150.069 152.322 150.563 151.443 151.442C150.563 152.322 150.069 153.515 150.069 154.759V159.448H154.759C156.002 159.448 157.195 158.954 158.075 158.075C158.954 157.195 159.448 156.002 159.448 154.759" fill="white"/>
<path d="M150.069 187.586H159.448V178.207H154.759C153.515 178.207 152.322 178.701 151.443 179.581C150.563 180.46 150.069 181.653 150.069 182.897" fill="white"/>
<path d="M150.069 234.483H159.448V225.104H154.759C153.515 225.104 152.322 225.598 151.443 226.477C150.563 227.357 150.069 228.549 150.069 229.793" fill="white"/>
<path d="M159.448 262.621H150.069V272H159.448V262.621Z" fill="white"/>
<path d="M168.828 0L164.138 0C162.894 0 161.701 0.494084 160.822 1.37356C159.942 2.25305 159.448 3.44588 159.448 4.68966V9.37931H164.138C165.382 9.37931 166.575 8.88523 167.454 8.00575C168.333 7.12627 168.828 5.93343 168.828 4.68966" fill="white"/>
<path d="M168.828 46.8965H159.448V56.2758H168.828V46.8965Z" fill="white"/>
<path d="M168.828 65.6553H159.448V75.0346H168.828V65.6553Z" fill="white"/>
<path d="M168.828 93.793H159.448V103.172H168.828V93.793Z" fill="white"/>
<path d="M168.828 103.172H159.448V112.552H168.828V103.172Z" fill="white"/>
<path d="M168.828 112.552H159.448V121.931H168.828V112.552Z" fill="white"/>
<path d="M159.448 168.828H168.828V159.448H164.138C162.894 159.448 161.701 159.942 160.822 160.822C159.942 161.701 159.448 162.894 159.448 164.138" fill="white"/>
<path d="M168.828 168.828H159.448V178.207H168.828V168.828Z" fill="white"/>
<path d="M168.828 178.207H159.448V187.586H164.138C165.382 187.586 166.575 187.092 167.454 186.213C168.333 185.333 168.828 184.14 168.828 182.897" fill="white"/>
<path d="M159.448 206.345H168.828V196.966H164.138C162.894 196.966 161.701 197.46 160.822 198.339C159.942 199.219 159.448 200.412 159.448 201.656" fill="white"/>
<path d="M168.828 206.345H159.448V215.725H168.828V206.345Z" fill="white"/>
<path d="M168.828 215.724H159.448V225.103H168.828V215.724Z" fill="white"/>
<path d="M168.828 225.104H159.448V234.483H168.828V225.104Z" fill="white"/>
<path d="M168.828 234.483H159.448V243.862H164.138C165.382 243.862 166.575 243.368 167.454 242.489C168.333 241.609 168.828 240.416 168.828 239.173" fill="white"/>
<path d="M168.828 262.621H159.448V272H168.828V262.621Z" fill="white"/>
<path d="M168.828 46.8965H178.207V37.5172H173.517C172.273 37.5172 171.081 38.0113 170.201 38.8907C169.322 39.7702 168.828 40.9631 168.828 42.2068" fill="white"/>
<path d="M178.207 46.8965H168.828V56.2758H178.207V46.8965Z" fill="white"/>
<path d="M178.207 56.2764H168.828V65.6557H178.207V56.2764Z" fill="white"/>
<path d="M178.207 65.6553H168.828V75.0346H178.207V65.6553Z" fill="white"/>
<path d="M178.207 84.4141H173.517C172.273 84.4141 171.081 84.9081 170.201 85.7876C169.322 86.6671 168.828 87.8599 168.828 89.1037V93.7934H173.517C174.761 93.7934 175.954 93.2993 176.833 92.4198C177.713 91.5403 178.207 90.3475 178.207 89.1037" fill="white"/>
<path d="M178.207 112.552H168.828V121.931H178.207V112.552Z" fill="white"/>
<path d="M178.207 121.931H168.828V131.31H178.207V121.931Z" fill="white"/>
<path d="M178.207 131.31H168.828V140.689H178.207V131.31Z" fill="white"/>
<path d="M178.207 140.69H168.828V150.069H178.207V140.69Z" fill="white"/>
<path d="M178.207 168.828H168.828V178.207H173.517C174.761 178.207 175.954 177.713 176.833 176.833C177.713 175.954 178.207 174.761 178.207 173.517" fill="white"/>
<path d="M178.207 187.586H173.517C172.273 187.586 171.081 188.081 170.201 188.96C169.322 189.839 168.828 191.032 168.828 192.276V196.966H173.517C174.761 196.966 175.954 196.472 176.833 195.592C177.713 194.713 178.207 193.52 178.207 192.276" fill="white"/>
<path d="M178.207 215.724H168.828V225.103H178.207V215.724Z" fill="white"/>
<path d="M178.207 225.104H168.828V234.483H173.517C174.761 234.483 175.954 233.989 176.833 233.109C177.713 232.23 178.207 231.037 178.207 229.793" fill="white"/>
<path d="M178.207 262.621H168.828V272H173.517C174.761 272 175.954 271.506 176.833 270.626C177.713 269.747 178.207 268.554 178.207 267.31" fill="white"/>
<path d="M187.586 37.5171H178.207V46.8964H187.586V37.5171Z" fill="white"/>
<path d="M187.586 65.6553H178.207V75.0346H187.586V65.6553Z" fill="white"/>
<path d="M178.207 103.172H187.586V93.7931H182.897C181.653 93.7931 180.46 94.2871 179.58 95.1666C178.701 96.0461 178.207 97.2389 178.207 98.4827" fill="white"/>
<path d="M187.586 103.172H178.207V112.552H187.586V103.172Z" fill="white"/>
<path d="M187.586 121.931H178.207V131.31H187.586V121.931Z" fill="white"/>
<path d="M187.586 131.31H178.207V140.689H187.586V131.31Z" fill="white"/>
<path d="M187.586 140.69H178.207V150.069H187.586V140.69Z" fill="white"/>
<path d="M187.586 150.069H178.207V159.448H187.586V150.069Z" fill="white"/>
<path d="M187.586 159.448H178.207V168.828H187.586V159.448Z" fill="white"/>
<path d="M178.207 187.586H187.586V178.207H182.897C181.653 178.207 180.46 178.701 179.58 179.581C178.701 180.46 178.207 181.653 178.207 182.897" fill="white"/>
<path d="M187.586 234.483H182.897C181.653 234.483 180.46 234.977 179.58 235.856C178.701 236.736 178.207 237.929 178.207 239.173V243.862H182.897C184.14 243.862 185.333 243.368 186.213 242.489C187.092 241.609 187.586 240.416 187.586 239.173" fill="white"/>
<path d="M187.586 253.241H182.897C181.653 253.241 180.46 253.735 179.58 254.615C178.701 255.494 178.207 256.687 178.207 257.931V262.621H182.897C184.14 262.621 185.333 262.126 186.213 261.247C187.092 260.367 187.586 259.175 187.586 257.931" fill="white"/>
<path d="M187.586 9.37891H196.966V-0.000404358H192.276C191.032 -0.000404358 189.839 0.493679 188.96 1.37316C188.08 2.25264 187.586 3.44548 187.586 4.68925" fill="white"/>
<path d="M196.966 9.37891H187.586V18.7582H192.276C193.52 18.7582 194.712 18.2641 195.592 17.3847C196.471 16.5052 196.966 15.3123 196.966 14.0686" fill="white"/>
<path d="M196.966 37.5171H187.586V46.8964H192.276C193.52 46.8964 194.712 46.4023 195.592 45.5228C196.471 44.6434 196.966 43.4505 196.966 42.2067" fill="white"/>
<path d="M187.586 65.6553H196.966V56.276H192.276C191.032 56.276 189.839 56.77 188.96 57.6495C188.08 58.529 187.586 59.7218 187.586 60.9656" fill="white"/>
<path d="M196.966 65.6553H187.586V75.0346H196.966V65.6553Z" fill="white"/>
<path d="M196.966 75.0342H187.586V84.4135H196.966V75.0342Z" fill="white"/>
<path d="M196.966 103.172H187.586V112.552H196.966V103.172Z" fill="white"/>
<path d="M196.966 112.552H187.586V121.931H196.966V112.552Z" fill="white"/>
<path d="M196.966 121.931H187.586V131.31H196.966V121.931Z" fill="white"/>
<path d="M196.966 159.448H187.586V168.828H192.276C193.52 168.828 194.712 168.333 195.592 167.454C196.471 166.575 196.966 165.382 196.966 164.138" fill="white"/>
<path d="M196.966 178.207H187.586V187.586H196.966V178.207Z" fill="white"/>
<path d="M196.966 187.586H187.586V196.966H196.966V187.586Z" fill="white"/>
<path d="M196.966 196.966H187.586V206.345H196.966V196.966Z" fill="white"/>
<path d="M196.966 206.345H187.586V215.725H196.966V206.345Z" fill="white"/>
<path d="M196.966 215.724H187.586V225.103H196.966V215.724Z" fill="white"/>
<path d="M196.966 225.104H187.586V234.483H196.966V225.104Z" fill="white"/>
<path d="M196.966 262.621H192.276C191.032 262.621 189.839 263.115 188.96 263.994C188.08 264.874 187.586 266.066 187.586 267.31V272H192.276C193.52 272 194.712 271.506 195.592 270.626C196.471 269.747 196.966 268.554 196.966 267.31" fill="white"/>
<path d="M206.345 75.0342H196.966V84.4135H206.345V75.0342Z" fill="white"/>
<path d="M206.345 84.4141H196.966V93.7934H201.655C202.899 93.7934 204.092 93.2993 204.971 92.4198C205.851 91.5403 206.345 90.3475 206.345 89.1037" fill="white"/>
<path d="M206.345 103.172H196.966V112.552H206.345V103.172Z" fill="white"/>
<path d="M206.345 121.931H196.966V131.31H206.345V121.931Z" fill="white"/>
<path d="M196.966 150.069H206.345V140.69H201.655C200.411 140.69 199.219 141.184 198.339 142.063C197.46 142.943 196.966 144.135 196.966 145.379" fill="white"/>
<path d="M206.345 168.828H201.655C200.411 168.828 199.219 169.322 198.339 170.201C197.46 171.081 196.966 172.274 196.966 173.517V178.207H201.655C202.899 178.207 204.092 177.713 204.971 176.833C205.851 175.954 206.345 174.761 206.345 173.517" fill="white"/>
<path d="M206.345 187.586H196.966V196.966H206.345V187.586Z" fill="white"/>
<path d="M206.345 225.104H196.966V234.483H206.345V225.104Z" fill="white"/>
<path d="M196.966 253.241H206.345V243.862H201.655C200.411 243.862 199.219 244.356 198.339 245.235C197.46 246.115 196.966 247.308 196.966 248.552" fill="white"/>
<path d="M206.345 253.241H196.966V262.621H201.655C202.899 262.621 204.092 262.126 204.971 261.247C205.851 260.367 206.345 259.175 206.345 257.931" fill="white"/>
<path d="M215.724 103.172H206.345V112.552H215.724V103.172Z" fill="white"/>
<path d="M215.724 112.552H206.345V121.931H215.724V112.552Z" fill="white"/>
<path d="M215.724 121.931H206.345V131.31H215.724V121.931Z" fill="white"/>
<path d="M215.724 140.69H206.345V150.069H211.034C212.278 150.069 213.471 149.575 214.351 148.696C215.23 147.816 215.724 146.623 215.724 145.38" fill="white"/>
<path d="M206.345 168.828H215.724V159.448H211.034C209.791 159.448 208.598 159.942 207.718 160.822C206.839 161.701 206.345 162.894 206.345 164.138" fill="white"/>
<path d="M206.345 187.586H215.724V178.207H211.034C209.791 178.207 208.598 178.701 207.718 179.581C206.839 180.46 206.345 181.653 206.345 182.897" fill="white"/>
<path d="M215.724 187.586H206.345V196.966H215.724V187.586Z" fill="white"/>
<path d="M215.724 206.345H211.034C209.791 206.345 208.598 206.839 207.718 207.719C206.839 208.598 206.345 209.791 206.345 211.035V215.725H211.034C212.278 215.725 213.471 215.23 214.351 214.351C215.23 213.471 215.724 212.279 215.724 211.035" fill="white"/>
<path d="M215.724 225.104H206.345V234.483H215.724V225.104Z" fill="white"/>
<path d="M215.724 262.621H211.034C209.791 262.621 208.598 263.115 207.718 263.994C206.839 264.874 206.345 266.066 206.345 267.31V272H211.034C212.278 272 213.471 271.506 214.351 270.626C215.23 269.747 215.724 268.554 215.724 267.31" fill="white"/>
<path d="M215.724 93.793H225.103V84.4137H220.414C219.17 84.4137 217.977 84.9077 217.098 85.7872C216.218 86.6667 215.724 87.8595 215.724 89.1033" fill="white"/>
<path d="M225.103 93.793H215.724V103.172H220.414C221.658 103.172 222.85 102.678 223.73 101.799C224.609 100.919 225.103 99.7264 225.103 98.4826" fill="white"/>
<path d="M225.103 121.931H215.724V131.31H225.103V121.931Z" fill="white"/>
<path d="M225.103 131.31H215.724V140.689H225.103V131.31Z" fill="white"/>
<path d="M225.103 159.448H215.724V168.828H225.103V159.448Z" fill="white"/>
<path d="M225.103 168.828H215.724V178.207H225.103V168.828Z" fill="white"/>
<path d="M225.103 178.207H215.724V187.586H225.103V178.207Z" fill="white"/>
<path d="M225.103 187.586H215.724V196.966H225.103V187.586Z" fill="white"/>
<path d="M225.103 225.104H215.724V234.483H225.103V225.104Z" fill="white"/>
<path d="M225.103 234.483H215.724V243.862H220.414C221.658 243.862 222.85 243.368 223.73 242.489C224.609 241.609 225.103 240.416 225.103 239.173" fill="white"/>
<path d="M225.103 84.4141H234.483V75.0348H229.793C228.549 75.0348 227.356 75.5288 226.477 76.4083C225.598 77.2878 225.103 78.4806 225.103 79.7244" fill="white"/>
<path d="M234.483 84.4141H225.103V93.7934H229.793C231.037 93.7934 232.23 93.2993 233.109 92.4198C233.989 91.5403 234.483 90.3475 234.483 89.1037" fill="white"/>
<path d="M225.103 112.552H234.483V103.172H229.793C228.549 103.172 227.356 103.667 226.477 104.546C225.598 105.425 225.103 106.618 225.103 107.862" fill="white"/>
<path d="M234.483 112.552H225.103V121.931H234.483V112.552Z" fill="white"/>
<path d="M234.483 131.31H225.103V140.689H234.483V131.31Z" fill="white"/>
<path d="M234.483 140.69H225.103V150.069H229.793C231.037 150.069 232.23 149.575 233.109 148.696C233.989 147.816 234.483 146.623 234.483 145.38" fill="white"/>
<path d="M234.483 168.828H225.103V178.207H234.483V168.828Z" fill="white"/>
<path d="M234.483 178.207H225.103V187.586H234.483V178.207Z" fill="white"/>
<path d="M234.483 187.586H225.103V196.966H234.483V187.586Z" fill="white"/>
<path d="M234.483 196.966H225.103V206.345H234.483V196.966Z" fill="white"/>
<path d="M234.483 206.345H225.103V215.725H234.483V206.345Z" fill="white"/>
<path d="M234.483 215.724H225.103V225.103H234.483V215.724Z" fill="white"/>
<path d="M234.483 225.104H225.103V234.483H229.793C231.037 234.483 232.23 233.989 233.109 233.109C233.989 232.23 234.483 231.037 234.483 229.793" fill="white"/>
<path d="M225.103 262.621H234.483V253.241H229.793C228.549 253.241 227.356 253.735 226.477 254.615C225.598 255.494 225.103 256.687 225.103 257.931" fill="white"/>
<path d="M234.483 262.621H225.103V272H229.793C231.037 272 232.23 271.506 233.109 270.626C233.989 269.747 234.483 268.554 234.483 267.31" fill="white"/>
<path d="M243.862 93.793H239.172C237.929 93.793 236.736 94.2871 235.856 95.1665C234.977 96.046 234.483 97.2389 234.483 98.4826V103.172H239.172C240.416 103.172 241.609 102.678 242.488 101.799C243.368 100.919 243.862 99.7264 243.862 98.4826" fill="white"/>
<path d="M243.862 112.552H234.483V121.931H243.862V112.552Z" fill="white"/>
<path d="M234.483 159.448H243.862V150.069H239.172C237.929 150.069 236.736 150.563 235.856 151.442C234.977 152.322 234.483 153.515 234.483 154.759" fill="white"/>
<path d="M243.862 159.448H234.483V168.828H243.862V159.448Z" fill="white"/>
<path d="M243.862 215.724H234.483V225.103H239.172C240.416 225.103 241.609 224.609 242.488 223.73C243.368 222.85 243.862 221.658 243.862 220.414" fill="white"/>
<path d="M234.483 253.241H243.862V243.862H239.172C237.929 243.862 236.736 244.356 235.856 245.235C234.977 246.115 234.483 247.308 234.483 248.552" fill="white"/>
<path d="M243.862 253.241H234.483V262.621H243.862V253.241Z" fill="white"/>
<path d="M253.241 112.552H243.862V121.931H253.241V112.552Z" fill="white"/>
<path d="M253.241 121.931H243.862V131.31H253.241V121.931Z" fill="white"/>
<path d="M253.241 131.31H243.862V140.689H253.241V131.31Z" fill="white"/>
<path d="M253.241 150.069H243.862V159.448H253.241V150.069Z" fill="white"/>
<path d="M253.241 159.448H243.862V168.828H253.241V159.448Z" fill="white"/>
<path d="M243.862 187.586H253.241V178.207H248.552C247.308 178.207 246.115 178.701 245.236 179.581C244.356 180.46 243.862 181.653 243.862 182.897" fill="white"/>
<path d="M253.241 187.586H243.862V196.966H253.241V187.586Z" fill="white"/>
<path d="M253.241 196.966H243.862V206.345H253.241V196.966Z" fill="white"/>
<path d="M253.241 234.483H248.552C247.308 234.483 246.115 234.977 245.236 235.856C244.356 236.736 243.862 237.929 243.862 239.173V243.862H248.552C249.795 243.862 250.988 243.368 251.868 242.489C252.747 241.609 253.241 240.416 253.241 239.173" fill="white"/>
<path d="M253.241 253.241H243.862V262.621H253.241V253.241Z" fill="white"/>
<path d="M253.241 262.621H243.862V272H253.241V262.621Z" fill="white"/>
<path d="M253.241 84.4141H262.621V75.0348H257.931C256.687 75.0348 255.494 75.5288 254.615 76.4083C253.735 77.2878 253.241 78.4806 253.241 79.7244" fill="white"/>
<path d="M262.621 84.4141H253.241V93.7934H262.621V84.4141Z" fill="white"/>
<path d="M253.241 112.552H262.621V103.172H257.931C256.687 103.172 255.494 103.667 254.615 104.546C253.735 105.425 253.241 106.618 253.241 107.862" fill="white"/>
<path d="M262.621 131.31H253.241V140.689H262.621V131.31Z" fill="white"/>
<path d="M262.621 159.448H253.241V168.828H262.621V159.448Z" fill="white"/>
<path d="M262.621 168.828H253.241V178.207H257.931C259.175 178.207 260.368 177.713 261.247 176.833C262.127 175.954 262.621 174.761 262.621 173.517" fill="white"/>
<path d="M262.621 187.586H253.241V196.966H262.621V187.586Z" fill="white"/>
<path d="M262.621 196.966H253.241V206.345H262.621V196.966Z" fill="white"/>
<path d="M262.621 206.345H253.241V215.725H262.621V206.345Z" fill="white"/>
<path d="M262.621 215.724H253.241V225.103H257.931C259.175 225.103 260.368 224.609 261.247 223.73C262.127 222.85 262.621 221.658 262.621 220.414" fill="white"/>
<path d="M262.621 253.241H253.241V262.621H262.621V253.241Z" fill="white"/>
<path d="M262.621 262.621H253.241V272H257.931C259.175 272 260.368 271.506 261.247 270.626C262.127 269.747 262.621 268.554 262.621 267.31" fill="white"/>
<path d="M272 84.4141H262.621V93.7934H267.31C268.554 93.7934 269.747 93.2993 270.626 92.4198C271.506 91.5403 272 90.3475 272 89.1037" fill="white"/>
<path d="M272 103.172H262.621V112.552H267.31C268.554 112.552 269.747 112.058 270.626 111.178C271.506 110.299 272 109.106 272 107.862" fill="white"/>
<path d="M272 131.31H262.621V140.689H272V131.31Z" fill="white"/>
<path d="M272 140.69H262.621V150.069H267.31C268.554 150.069 269.747 149.575 270.626 148.696C271.506 147.816 272 146.623 272 145.38" fill="white"/>
<path d="M272 159.448H262.621V168.828H267.31C268.554 168.828 269.747 168.333 270.626 167.454C271.506 166.575 272 165.382 272 164.138" fill="white"/>
<path d="M272 187.586H262.621V196.966H272V187.586Z" fill="white"/>
<path d="M272 196.966H262.621V206.345H272V196.966Z" fill="white"/>
<path d="M272 206.345H262.621V215.725H267.31C268.554 215.725 269.747 215.23 270.626 214.351C271.506 213.471 272 212.279 272 211.035" fill="white"/>
<path d="M272 225.104H267.31C266.067 225.104 264.874 225.598 263.994 226.477C263.115 227.357 262.621 228.549 262.621 229.793V234.483H267.31C268.554 234.483 269.747 233.989 270.626 233.109C271.506 232.23 272 231.037 272 229.793" fill="white"/>
<path d="M272 253.241H262.621V262.621H267.31C268.554 262.621 269.747 262.126 270.626 261.247C271.506 260.367 272 259.175 272 257.931" fill="white"/>
</mask>
<g mask="url(#mask0_59_3823)">
<path d="M272 0H0V272H272V0Z" fill="#F3F277"/>
</g>
<mask id="mask1_59_3823" style="mask-type:luminance" maskUnits="userSpaceOnUse" x="0" y="0" width="66" height="66">
<path fill-rule="evenodd" clip-rule="evenodd" d="M0 23.4483V42.2069C0 48.4258 2.47044 54.3899 6.86784 58.7873C11.2652 63.1847 17.2294 65.6552 23.4483 65.6552H42.2069C48.4258 65.6552 54.3899 63.1847 58.7873 58.7873C63.1847 54.3899 65.6552 48.4258 65.6552 42.2069V23.4483C65.6552 17.2294 63.1847 11.2652 58.7873 6.86784C54.3899 2.47044 48.4258 0 42.2069 0H23.4483C17.2294 0 11.2652 2.47044 6.86784 6.86784C2.47044 11.2652 0 17.2294 0 23.4483ZM23.4483 9.37931H42.2069C45.9382 9.37931 49.5167 10.8616 52.1552 13.5C54.7936 16.1385 56.2759 19.717 56.2759 23.4483V42.2069C56.2759 45.9382 54.7936 49.5167 52.1552 52.1552C49.5167 54.7936 45.9382 56.2759 42.2069 56.2759H23.4483C19.717 56.2759 16.1385 54.7936 13.5 52.1552C10.8616 49.5167 9.37931 45.9382 9.37931 42.2069V23.4483C9.37931 19.717 10.8616 16.1385 13.5 13.5C16.1385 10.8616 19.717 9.37931 23.4483 9.37931Z" fill="white"/>
</mask>
<g mask="url(#mask1_59_3823)">
<path d="M65.6552 0H0V65.6552H65.6552V0Z" fill="#F3F277"/>
</g>
<mask id="mask2_59_3823" style="mask-type:luminance" maskUnits="userSpaceOnUse" x="18" y="18" width="29" height="29">
<path d="M38.8573 46.8963H26.7983C22.3564 46.8963 18.759 43.2986 18.759 38.8571V26.798C18.759 22.3561 22.3568 18.7588 26.7983 18.7588H38.8573C43.2992 18.7588 46.8965 22.3565 46.8965 26.798V38.8571C46.8965 43.299 43.2988 46.8963 38.8573 46.8963Z" fill="white"/>
</mask>
<g mask="url(#mask2_59_3823)">
<path d="M46.8964 18.7588H18.7585V46.8967H46.8964V18.7588Z" fill="#F3F277"/>
</g>
<mask id="mask3_59_3823" style="mask-type:luminance" maskUnits="userSpaceOnUse" x="206" y="0" width="66" height="66">
<path fill-rule="evenodd" clip-rule="evenodd" d="M248.552 0L229.793 0C223.574 0 217.61 2.47044 213.213 6.86785C208.815 11.2653 206.345 17.2294 206.345 23.4483V42.2069C206.345 48.4258 208.815 54.3899 213.213 58.7873C217.61 63.1847 223.574 65.6552 229.793 65.6552H248.552C254.771 65.6552 260.735 63.1847 265.132 58.7873C269.53 54.3899 272 48.4258 272 42.2069V23.4483C272 17.2294 269.53 11.2653 265.132 6.86785C260.735 2.47044 254.771 0 248.552 0ZM262.621 23.4483V42.2069C262.621 45.9382 261.138 49.5167 258.5 52.1552C255.862 54.7936 252.283 56.2759 248.552 56.2759H229.793C226.062 56.2759 222.483 54.7936 219.845 52.1552C217.206 49.5167 215.724 45.9382 215.724 42.2069V23.4483C215.724 19.717 217.206 16.1384 219.845 13.5C222.483 10.8616 226.062 9.37931 229.793 9.37931H248.552C252.283 9.37931 255.862 10.8616 258.5 13.5C261.138 16.1384 262.621 19.717 262.621 23.4483Z" fill="white"/>
</mask>
<g mask="url(#mask3_59_3823)">
<path d="M272 0H206.345V65.6552H272V0Z" fill="#F3F277"/>
</g>
<mask id="mask4_59_3823" style="mask-type:luminance" maskUnits="userSpaceOnUse" x="225" y="18" width="29" height="29">
<path d="M245.202 46.8963H233.143C228.701 46.8963 225.104 43.2986 225.104 38.8571V26.798C225.104 22.3561 228.702 18.7588 233.143 18.7588H245.202C249.644 18.7588 253.241 22.3565 253.241 26.798V38.8571C253.241 43.299 249.644 46.8963 245.202 46.8963Z" fill="white"/>
</mask>
<g mask="url(#mask4_59_3823)">
<path d="M253.241 18.7588H225.103V46.8967H253.241V18.7588Z" fill="#F3F277"/>
</g>
<mask id="mask5_59_3823" style="mask-type:luminance" maskUnits="userSpaceOnUse" x="0" y="206" width="66" height="67">
<path fill-rule="evenodd" clip-rule="evenodd" d="M23.4483 272H42.2069C48.4258 272 54.3899 269.53 58.7873 265.133C63.1847 260.735 65.6552 254.771 65.6552 248.552V229.794C65.6552 223.575 63.1847 217.611 58.7873 213.213C54.3899 208.816 48.4258 206.345 42.2069 206.345H23.4483C17.2294 206.345 11.2653 208.816 6.86785 213.213C2.47044 217.611 0 223.575 0 229.794L0 248.552C0 254.771 2.47044 260.735 6.86785 265.133C11.2653 269.53 17.2294 272 23.4483 272ZM9.37931 248.552V229.794C9.37931 226.062 10.8616 222.484 13.5 219.845C16.1384 217.207 19.717 215.725 23.4483 215.725H42.2069C45.9382 215.725 49.5167 217.207 52.1552 219.845C54.7936 222.484 56.2759 226.062 56.2759 229.794V248.552C56.2759 252.284 54.7936 255.862 52.1552 258.5C49.5167 261.139 45.9382 262.621 42.2069 262.621H23.4483C19.717 262.621 16.1384 261.139 13.5 258.5C10.8616 255.862 9.37931 252.284 9.37931 248.552Z" fill="white"/>
</mask>
<g mask="url(#mask5_59_3823)">
<path d="M65.6552 206.345H0V272H65.6552V206.345Z" fill="#F3F277"/>
</g>
<mask id="mask6_59_3823" style="mask-type:luminance" maskUnits="userSpaceOnUse" x="18" y="225" width="29" height="29">
<path d="M38.8573 253.241H26.7983C22.3564 253.241 18.759 249.643 18.759 245.202V233.143C18.759 228.701 22.3568 225.104 26.7983 225.104H38.8573C43.2992 225.104 46.8965 228.701 46.8965 233.143V245.202C46.8965 249.644 43.2988 253.241 38.8573 253.241Z" fill="white"/>
</mask>
<g mask="url(#mask6_59_3823)">
<path d="M46.8965 225.104H18.7585V253.241H46.8965V225.104Z" fill="#F3F277"/>
</g>
</svg>
