<svg width="48" height="49" viewBox="0 0 48 49" fill="none" xmlns="http://www.w3.org/2000/svg">
<path d="M19.1471 5.10513C18.3292 5.31064 17.6325 5.70002 17.1378 6.24083C16.7945 6.61939 16.6834 6.68429 16.3098 6.68429C15.6939 6.68429 14.8558 7.05204 14.3813 7.53876C13.4423 8.49059 13.0485 9.60464 12.9778 11.5083C12.9071 13.0874 13.0889 14.1907 13.6341 15.5427C13.8361 16.0511 13.9572 16.4729 13.8966 16.4945C13.8461 16.5162 13.6644 16.6243 13.4827 16.7433C12.372 17.468 13.2403 20.1396 14.7448 20.6155C15.1083 20.7344 15.1487 20.7885 15.3102 21.405C15.5121 22.1946 15.8453 22.9301 16.2694 23.4926C16.5723 23.8928 16.5824 23.9468 16.5824 24.9527C16.5824 26.8023 16.2492 27.1917 13.6947 28.3598C12.8163 28.7708 11.5137 29.409 10.807 29.7984C9.57513 30.469 8 31.4857 8 31.6263C8 31.8102 9.36309 33.292 10.1708 33.9842C11.746 35.347 12.8062 36.0285 14.5327 36.764C16.5622 37.6292 17.8647 37.8888 20.3183 37.8888C22.3781 37.8888 23.0041 37.8131 24.761 37.3264C25.286 37.175 25.7707 37.056 25.8212 37.0452C25.8817 37.0344 25.9423 37.9105 25.9726 39.4031C26.0332 42.1071 26.114 42.4316 26.9015 43.1996C27.7497 44.0216 27.5679 43.9999 32.9698 43.9999H37.7962L38.3414 43.7187C39.0078 43.3834 39.5329 42.7561 39.8055 41.9665C40.0074 41.3933 40.0175 41.1878 39.9872 35.6283L39.9569 29.8849L39.6742 29.2684C39.3309 28.5112 38.6544 27.8515 37.9577 27.5919C37.4832 27.4188 37.0187 27.3972 33.091 27.3972C28.2848 27.3972 28.0728 27.4188 27.265 28.111L26.8914 28.4247L26.1342 28.0678C25.2355 27.6676 24.5086 27.1051 24.1854 26.5968C23.9835 26.2723 23.9532 26.0992 23.9532 25.0393C23.9532 23.8711 23.9532 23.8495 24.2662 23.4709C24.6297 23.0275 25.0134 22.1622 25.2052 21.351C25.3264 20.8534 25.3769 20.7777 25.7404 20.6371C26.326 20.3991 26.6491 20.1396 26.9823 19.6528C27.2852 19.1986 27.5881 18.2684 27.5881 17.7708C27.5881 17.3165 27.3054 16.8515 26.9217 16.6784C26.7299 16.5919 26.5784 16.4729 26.5784 16.4188C26.5784 16.3647 26.7097 16.0078 26.8712 15.64C27.5881 13.9527 27.8103 11.5083 27.3761 10.113C26.9924 8.85833 26.2452 7.96059 25.2961 7.59285C24.761 7.38734 24.6802 7.39816 23.9734 7.77672C23.1051 8.22018 22.4589 8.28508 21.6511 7.99304C21.0857 7.78754 20.2173 7.28999 20.2173 7.18183C20.2173 7.1602 20.7929 7.14938 21.5098 7.1602C22.7214 7.17102 22.8224 7.1602 23.4282 6.85735C23.9936 6.57613 24.761 5.86226 24.761 5.61349C24.761 5.57023 24.4278 5.5486 24.034 5.57023C23.4686 5.61349 23.0546 5.55941 22.2367 5.33227C20.914 4.98616 19.9548 4.91044 19.1471 5.10513ZM37.3317 29.1061C37.7861 29.3008 38.0385 29.5171 38.2808 29.939C38.4929 30.3175 38.4929 30.3933 38.4929 35.7905V41.2635L38.2606 41.6204C38.1395 41.8259 37.8769 42.0855 37.6851 42.2045C37.3418 42.4208 37.1904 42.4316 32.9799 42.4316H28.6382L28.2242 42.1396C27.467 41.6096 27.4872 41.761 27.4872 35.7905C27.4872 30.0688 27.4872 30.058 28.0223 29.5063C28.1637 29.3549 28.4565 29.1818 28.6685 29.1061C29.2036 28.9331 36.9076 28.9331 37.3317 29.1061Z" fill="white" style="mix-blend-mode:overlay"/>
<path d="M19.1471 5.10513C18.3292 5.31064 17.6325 5.70002 17.1378 6.24083C16.7945 6.61939 16.6834 6.68429 16.3098 6.68429C15.6939 6.68429 14.8558 7.05204 14.3813 7.53876C13.4423 8.49059 13.0485 9.60464 12.9778 11.5083C12.9071 13.0874 13.0889 14.1907 13.6341 15.5427C13.8361 16.0511 13.9572 16.4729 13.8966 16.4945C13.8461 16.5162 13.6644 16.6243 13.4827 16.7433C12.372 17.468 13.2403 20.1396 14.7448 20.6155C15.1083 20.7344 15.1487 20.7885 15.3102 21.405C15.5121 22.1946 15.8453 22.9301 16.2694 23.4926C16.5723 23.8928 16.5824 23.9468 16.5824 24.9527C16.5824 26.8023 16.2492 27.1917 13.6947 28.3598C12.8163 28.7708 11.5137 29.409 10.807 29.7984C9.57513 30.469 8 31.4857 8 31.6263C8 31.8102 9.36309 33.292 10.1708 33.9842C11.746 35.347 12.8062 36.0285 14.5327 36.764C16.5622 37.6292 17.8647 37.8888 20.3183 37.8888C22.3781 37.8888 23.0041 37.8131 24.761 37.3264C25.286 37.175 25.7707 37.056 25.8212 37.0452C25.8817 37.0344 25.9423 37.9105 25.9726 39.4031C26.0332 42.1071 26.114 42.4316 26.9015 43.1996C27.7497 44.0216 27.5679 43.9999 32.9698 43.9999H37.7962L38.3414 43.7187C39.0078 43.3834 39.5329 42.7561 39.8055 41.9665C40.0074 41.3933 40.0175 41.1878 39.9872 35.6283L39.9569 29.8849L39.6742 29.2684C39.3309 28.5112 38.6544 27.8515 37.9577 27.5919C37.4832 27.4188 37.0187 27.3972 33.091 27.3972C28.2848 27.3972 28.0728 27.4188 27.265 28.111L26.8914 28.4247L26.1342 28.0678C25.2355 27.6676 24.5086 27.1051 24.1854 26.5968C23.9835 26.2723 23.9532 26.0992 23.9532 25.0393C23.9532 23.8711 23.9532 23.8495 24.2662 23.4709C24.6297 23.0275 25.0134 22.1622 25.2052 21.351C25.3264 20.8534 25.3769 20.7777 25.7404 20.6371C26.326 20.3991 26.6491 20.1396 26.9823 19.6528C27.2852 19.1986 27.5881 18.2684 27.5881 17.7708C27.5881 17.3165 27.3054 16.8515 26.9217 16.6784C26.7299 16.5919 26.5784 16.4729 26.5784 16.4188C26.5784 16.3647 26.7097 16.0078 26.8712 15.64C27.5881 13.9527 27.8103 11.5083 27.3761 10.113C26.9924 8.85833 26.2452 7.96059 25.2961 7.59285C24.761 7.38734 24.6802 7.39816 23.9734 7.77672C23.1051 8.22018 22.4589 8.28508 21.6511 7.99304C21.0857 7.78754 20.2173 7.28999 20.2173 7.18183C20.2173 7.1602 20.7929 7.14938 21.5098 7.1602C22.7214 7.17102 22.8224 7.1602 23.4282 6.85735C23.9936 6.57613 24.761 5.86226 24.761 5.61349C24.761 5.57023 24.4278 5.5486 24.034 5.57023C23.4686 5.61349 23.0546 5.55941 22.2367 5.33227C20.914 4.98616 19.9548 4.91044 19.1471 5.10513ZM37.3317 29.1061C37.7861 29.3008 38.0385 29.5171 38.2808 29.939C38.4929 30.3175 38.4929 30.3933 38.4929 35.7905V41.2635L38.2606 41.6204C38.1395 41.8259 37.8769 42.0855 37.6851 42.2045C37.3418 42.4208 37.1904 42.4316 32.9799 42.4316H28.6382L28.2242 42.1396C27.467 41.6096 27.4872 41.761 27.4872 35.7905C27.4872 30.0688 27.4872 30.058 28.0223 29.5063C28.1637 29.3549 28.4565 29.1818 28.6685 29.1061C29.2036 28.9331 36.9076 28.9331 37.3317 29.1061Z" fill="white" fill-opacity="0.8" style="mix-blend-mode:overlay"/>
<path d="M29.133 30.3716C28.6988 30.5663 28.5979 30.999 28.5979 32.6863V34.2546L29.8903 34.2871L31.1726 34.3195V34.644V34.9685L29.8802 35.001L28.5878 35.0334L28.6181 35.9203L28.6484 36.8072L30.2942 36.8397L31.9299 36.8613V36.2124V35.5634H32.2429C32.5155 35.5634 32.5458 35.5309 32.5155 35.2605C32.4953 35.0334 32.4246 34.9577 32.2126 34.9361C31.9703 34.9036 31.9299 34.8495 31.9299 34.5791C31.9299 34.2979 31.9602 34.2655 32.2328 34.2655H32.5357L32.5155 32.2861L32.4852 30.3176L30.9202 30.2959C30.0619 30.2851 29.2542 30.3176 29.133 30.3716ZM31.7279 32.3186V33.6165H30.5668H29.4056V32.3186V31.0206H30.5668H31.7279V32.3186ZM31.2231 35.8879V36.2124H30.3144H29.4056V35.8879V35.5634H30.3144H31.2231V35.8879Z" fill="white" style="mix-blend-mode:overlay"/>
<path d="M29.133 30.3716C28.6988 30.5663 28.5979 30.999 28.5979 32.6863V34.2546L29.8903 34.2871L31.1726 34.3195V34.644V34.9685L29.8802 35.001L28.5878 35.0334L28.6181 35.9203L28.6484 36.8072L30.2942 36.8397L31.9299 36.8613V36.2124V35.5634H32.2429C32.5155 35.5634 32.5458 35.5309 32.5155 35.2605C32.4953 35.0334 32.4246 34.9577 32.2126 34.9361C31.9703 34.9036 31.9299 34.8495 31.9299 34.5791C31.9299 34.2979 31.9602 34.2655 32.2328 34.2655H32.5357L32.5155 32.2861L32.4852 30.3176L30.9202 30.2959C30.0619 30.2851 29.2542 30.3176 29.133 30.3716ZM31.7279 32.3186V33.6165H30.5668H29.4056V32.3186V31.0206H30.5668H31.7279V32.3186ZM31.2231 35.8879V36.2124H30.3144H29.4056V35.8879V35.5634H30.3144H31.2231V35.8879Z" fill="white" fill-opacity="0.8" style="mix-blend-mode:overlay"/>
<path d="M30.0114 32.2536V32.8593H30.5768H31.1321L31.1018 32.2861L31.0715 31.7236L30.5465 31.6912L30.0114 31.6587V32.2536Z" fill="white" style="mix-blend-mode:overlay"/>
<path d="M30.0114 32.2536V32.8593H30.5768H31.1321L31.1018 32.2861L31.0715 31.7236L30.5465 31.6912L30.0114 31.6587V32.2536Z" fill="white" fill-opacity="0.8" style="mix-blend-mode:overlay"/>
<path d="M33.2425 32.5889V34.9144H33.5959C33.919 34.9144 33.9493 34.936 33.9493 35.2389C33.9493 35.5201 33.9796 35.5634 34.2421 35.5634C34.4945 35.5634 34.5551 35.6174 34.6056 35.8878C34.6662 36.1691 34.7166 36.2123 35.0196 36.2123C35.3326 36.2123 35.3628 36.2448 35.3628 36.5368C35.3628 36.8397 35.3326 36.8613 35.0196 36.8613C34.7166 36.8613 34.6662 36.8288 34.6359 36.5584C34.6157 36.3205 34.5551 36.2556 34.2825 36.234C33.9695 36.2015 33.9493 36.2231 33.9493 36.526C33.9493 36.8397 33.919 36.8613 33.5959 36.8613H33.2526L33.2223 36.234C33.192 35.6283 33.192 35.6174 32.8891 35.6174C32.5862 35.6174 32.5862 35.6283 32.5862 36.2123C32.5862 36.7856 32.5963 36.8072 32.8689 36.8397C33.0809 36.8721 33.1415 36.937 33.1415 37.1317C33.1415 37.4129 33.3939 37.6184 33.7372 37.6184C33.9291 37.6184 33.9493 37.6833 33.9493 38.2674V38.9164H34.2522C34.545 38.9164 34.5551 38.938 34.5551 39.4031V39.9006L35.2922 39.8682L36.0192 39.8357L36.0494 38.3431L36.0797 36.8613H36.3725H36.6755V38.7V40.5388H35.3124H33.9594L33.9291 39.7492L33.8988 38.9704L33.5858 38.938C33.1819 38.8947 33.1314 39.0678 33.2122 40.2792L33.2728 41.1877H35.1205H36.9683L37.1702 40.9065C37.3621 40.6361 37.3822 40.4739 37.3822 38.7433V36.8613H37.0289C36.7057 36.8613 36.6755 36.8397 36.6755 36.5368C36.6755 36.234 36.7057 36.2123 37.0289 36.2123H37.3822V35.6174V35.0334L35.999 35.0009L34.6056 34.9685V34.644V34.3195L35.999 34.2871L37.3822 34.2546V32.524V30.7934L37.1197 30.5339C36.8572 30.2635 36.8168 30.2635 35.0498 30.2635H33.2425V32.5889ZM36.6553 32.2861L36.625 33.5624L35.2922 33.5948L33.9493 33.6273V32.3185V31.0206H35.3124H36.6856L36.6553 32.2861ZM36.0696 35.8878C36.0696 36.1907 36.0393 36.2123 35.7162 36.2123C35.3931 36.2123 35.3628 36.1907 35.3628 35.8878C35.3628 35.585 35.3931 35.5634 35.7162 35.5634C36.0393 35.5634 36.0696 35.585 36.0696 35.8878ZM35.3628 37.9429C35.3628 38.2458 35.3326 38.2674 35.0095 38.2674C34.6864 38.2674 34.6561 38.2458 34.6561 37.9429C34.6561 37.6401 34.6864 37.6184 35.0095 37.6184C35.3326 37.6184 35.3628 37.6401 35.3628 37.9429Z" fill="white" style="mix-blend-mode:overlay"/>
<path d="M33.2425 32.5889V34.9144H33.5959C33.919 34.9144 33.9493 34.936 33.9493 35.2389C33.9493 35.5201 33.9796 35.5634 34.2421 35.5634C34.4945 35.5634 34.5551 35.6174 34.6056 35.8878C34.6662 36.1691 34.7166 36.2123 35.0196 36.2123C35.3326 36.2123 35.3628 36.2448 35.3628 36.5368C35.3628 36.8397 35.3326 36.8613 35.0196 36.8613C34.7166 36.8613 34.6662 36.8288 34.6359 36.5584C34.6157 36.3205 34.5551 36.2556 34.2825 36.234C33.9695 36.2015 33.9493 36.2231 33.9493 36.526C33.9493 36.8397 33.919 36.8613 33.5959 36.8613H33.2526L33.2223 36.234C33.192 35.6283 33.192 35.6174 32.8891 35.6174C32.5862 35.6174 32.5862 35.6283 32.5862 36.2123C32.5862 36.7856 32.5963 36.8072 32.8689 36.8397C33.0809 36.8721 33.1415 36.937 33.1415 37.1317C33.1415 37.4129 33.3939 37.6184 33.7372 37.6184C33.9291 37.6184 33.9493 37.6833 33.9493 38.2674V38.9164H34.2522C34.545 38.9164 34.5551 38.938 34.5551 39.4031V39.9006L35.2922 39.8682L36.0192 39.8357L36.0494 38.3431L36.0797 36.8613H36.3725H36.6755V38.7V40.5388H35.3124H33.9594L33.9291 39.7492L33.8988 38.9704L33.5858 38.938C33.1819 38.8947 33.1314 39.0678 33.2122 40.2792L33.2728 41.1877H35.1205H36.9683L37.1702 40.9065C37.3621 40.6361 37.3822 40.4739 37.3822 38.7433V36.8613H37.0289C36.7057 36.8613 36.6755 36.8397 36.6755 36.5368C36.6755 36.234 36.7057 36.2123 37.0289 36.2123H37.3822V35.6174V35.0334L35.999 35.0009L34.6056 34.9685V34.644V34.3195L35.999 34.2871L37.3822 34.2546V32.524V30.7934L37.1197 30.5339C36.8572 30.2635 36.8168 30.2635 35.0498 30.2635H33.2425V32.5889ZM36.6553 32.2861L36.625 33.5624L35.2922 33.5948L33.9493 33.6273V32.3185V31.0206H35.3124H36.6856L36.6553 32.2861ZM36.0696 35.8878C36.0696 36.1907 36.0393 36.2123 35.7162 36.2123C35.3931 36.2123 35.3628 36.1907 35.3628 35.8878C35.3628 35.585 35.3931 35.5634 35.7162 35.5634C36.0393 35.5634 36.0696 35.585 36.0696 35.8878ZM35.3628 37.9429C35.3628 38.2458 35.3326 38.2674 35.0095 38.2674C34.6864 38.2674 34.6561 38.2458 34.6561 37.9429C34.6561 37.6401 34.6864 37.6184 35.0095 37.6184C35.3326 37.6184 35.3628 37.6401 35.3628 37.9429Z" fill="white" fill-opacity="0.8" style="mix-blend-mode:overlay"/>
<path d="M34.5551 32.2644V32.8701L35.2921 32.8377L36.0191 32.8052V32.2644V31.7236L35.2921 31.6912L34.5551 31.6587V32.2644Z" fill="white" style="mix-blend-mode:overlay"/>
<path d="M34.5551 32.2644V32.8701L35.2921 32.8377L36.0191 32.8052V32.2644V31.7236L35.2921 31.6912L34.5551 31.6587V32.2644Z" fill="white" fill-opacity="0.8" style="mix-blend-mode:overlay"/>
<path d="M28.5978 38.9921C28.5978 40.29 28.6281 40.528 28.7997 40.8308L29.0017 41.1877H30.7686H32.5356V39.349V37.5103H30.5667H28.5978V38.9921ZM31.6572 38.2566C31.6975 38.2566 31.7278 38.7757 31.7278 39.4031V40.5388H30.5667H29.4055V39.4247C29.4055 38.8082 29.4257 38.2782 29.456 38.2458C29.5065 38.1917 31.4148 38.2025 31.6572 38.2566Z" fill="white" style="mix-blend-mode:overlay"/>
<path d="M28.5978 38.9921C28.5978 40.29 28.6281 40.528 28.7997 40.8308L29.0017 41.1877H30.7686H32.5356V39.349V37.5103H30.5667H28.5978V38.9921ZM31.6572 38.2566C31.6975 38.2566 31.7278 38.7757 31.7278 39.4031V40.5388H30.5667H29.4055V39.4247C29.4055 38.8082 29.4257 38.2782 29.456 38.2458C29.5065 38.1917 31.4148 38.2025 31.6572 38.2566Z" fill="white" fill-opacity="0.8" style="mix-blend-mode:overlay"/>
<path d="M30.0114 39.4031V39.8898H30.5667H31.122V39.4031V38.9164H30.5667H30.0114V39.4031Z" fill="white" style="mix-blend-mode:overlay"/>
<path d="M30.0114 39.4031V39.8898H30.5667H31.122V39.4031V38.9164H30.5667H30.0114V39.4031Z" fill="white" fill-opacity="0.8" style="mix-blend-mode:overlay"/>
</svg>
